/* XPM */
static char *_d04c77aa85140c0becfd7930733df92rnbbEV4q0R8n92CD[] = {
/* columns rows colors chars-per-pixel */
"34 50 170 2 ",
"   c None",
".  c #1A120D",
"X  c #1F1610",
"o  c #2F0F16",
"O  c #241B13",
"+  c #291C14",
"@  c #2E1416",
"#  c #341618",
"$  c #3B151B",
"%  c #301517",
"&  c #2D2117",
"*  c #2F2218",
"=  c #33261A",
"-  c #37281B",
";  c #3D2D1E",
":  c #42141E",
">  c #441B1F",
",  c #4A1622",
"<  c #4F1A24",
"1  c #541926",
"2  c #571A28",
"3  c #591B28",
"4  c #591B27",
"5  c #641D2D",
"6  c #681E2F",
"7  c #6C1F30",
"8  c #642F2D",
"9  c #6A282F",
"0  c #66232D",
"q  c #66312D",
"w  c #6D2030",
"e  c #642A36",
"r  c #762235",
"t  c #7A2337",
"y  c #7D2439",
"u  c #6C3837",
"i  c #7D3B37",
"p  c #7F4038",
"a  c #754B33",
"s  c #785034",
"d  c #763040",
"f  c #713D48",
"g  c #84263C",
"h  c #89273E",
"j  c #832B3E",
"k  c #95293E",
"l  c #9E2B3D",
"z  c #A32C3F",
"x  c #A82D3F",
"c  c #805A39",
"v  c #896F3B",
"b  c #876E3A",
"n  c #8C723D",
"m  c #90753F",
"M  c #8D2840",
"N  c #932A43",
"B  c #992B45",
"V  c #9E2C48",
"C  c #883548",
"Z  c #99354C",
"A  c #973A50",
"S  c #A32E4B",
"D  c #A92F4A",
"F  c #AC2F46",
"G  c #AC3049",
"H  c #A0394D",
"J  c #BB3346",
"K  c #B43148",
"L  c #B9354A",
"P  c #B6394F",
"I  c #AE3750",
"U  c #AA3C56",
"Y  c #BB3E53",
"T  c #C43445",
"R  c #C13B4D",
"E  c #C43749",
"W  c #8B4152",
"Q  c #8F4858",
"!  c #904B5A",
"~  c #A7455D",
"^  c #BD4256",
"/  c #927641",
"(  c #967942",
")  c #9B7D45",
"_  c #8A5B65",
"`  c #9A5B6A",
"'  c #965463",
"]  c #A84A61",
"[  c #B3526A",
"{  c #9F6471",
"}  c #9B727B",
"|  c #AB6271",
" . c #B36476",
".. c #BC667B",
"X. c #C94454",
"o. c #CD4E5D",
"O. c #CF5967",
"+. c #C95061",
"@. c #C66B7C",
"#. c #D46A76",
"$. c #D26774",
"%. c #9F8047",
"&. c #A08147",
"*. c #A5854A",
"=. c #A9874C",
"-. c #AC8A4E",
";. c #AD8B51",
":. c #B28E51",
">. c #B59152",
",. c #B99455",
"<. c #BB975C",
"1. c #BD995C",
"2. c #B5945B",
"3. c #C39D5E",
"4. c #C59E5D",
"5. c #C39B59",
"6. c #C89F5E",
"7. c #C7A05F",
"8. c #C49F62",
"9. c #CAA262",
"0. c #CCA565",
"q. c #CBA669",
"w. c #C7A263",
"e. c #D5AD6D",
"r. c #D2A969",
"t. c #DFB778",
"y. c #DBB374",
"u. c #A87D86",
"i. c #B27E89",
"p. c #BA7C8A",
"a. c #C97D8E",
"s. c #A7828A",
"d. c #B5838E",
"f. c #BC8A95",
"g. c #B9979F",
"h. c #BD98A0",
"j. c #BBA2A7",
"k. c #D5808A",
"l. c #C58694",
"z. c #CE8A99",
"x. c #DD8A94",
"c. c #D28D9B",
"v. c #DE8F98",
"b. c #DD8690",
"n. c #C19AA3",
"m. c #CD9BA8",
"M. c #D89CA9",
"N. c #CBADB4",
"B. c #C4AEB3",
"V. c #D3A7B1",
"C. c #CEB6BB",
"Z. c #DEB0B7",
"A. c #D1B4BA",
"S. c #E4A1A9",
"D. c #E2ACB5",
"F. c #E9B7BE",
"G. c #CEBCC0",
"H. c #E8BCC3",
"J. c #DBC6CA",
"K. c #D7C4C8",
"L. c #EEC5CB",
"P. c #E9C4CA",
"I. c #F0CACE",
"U. c #EDCED3",
"Y. c #E5DBDD",
"T. c #E1D5D7",
"R. c #F3D6DA",
"E. c #F2DEE2",
"W. c #EFE5E8",
"Q. c #F0E7E9",
/* pixels */
"                                                                    ",
"                              / / / / n                             ",
"                            / ,.e.e.e.*.n                           ",
"                          m ,./ ,.,.,.q.;.n b                       ",
"                        n ( ,./ ( ( ) >.) n n                       ",
"                      ) ( ;.( :.q.q.,.( / =.) / %.                  ",
"                    *.-.) w./ ( %.%.( n %.*./ %.-.%.                ",
"                  *.,.1.m 1.8.-.m m n / ) / n ;.3.;.%.              ",
"                %.-.9.q.n *.3.0.<.) n n n b n 2.e.>.%.              ",
"                *.,.9.q.m -.&.=.=.n n / n n n <.t.4.-.%.            ",
"              %.-.,.4.0.>.*.*.&.n n n / n / ) 4.y.9.:.%.            ",
"              %.-.>.>.0.4.m *.*.n n n m n m =.6.r.0.-.)             ",
"              ) *.*.*.>.-.m b n n / / v v ) :.1.6.4.:./             ",
"              / ) ) ) :.&.) ) ) / / / / m 1.4.,.1.5.=./             ",
"                ( ) ) -.) *.5.,.) / / =.>.5.5.>.,.>.) /             ",
"                m / ( ) &.*.>.>.4.,.*.%.-.>.>.-.*.=./               ",
"                  / m &.%.%.%.%.>.>.*.%.%.-.>.-.%.) (               ",
"                    ) &.%.%.&.%.>.*.%.%.%.%.%.%.) m                 ",
"                    m ) &.) / %.%.%.%.%.( ) %.) m m                 ",
"                  > u ( ( ) / %.( %.( %.( ) ) / c < #               ",
"                : 3 r c n / m ( m ( m ( / ( n a 0 5 , o             ",
"              , r N B M i n n b n n n n n n s 0 r r 5 < o           ",
"            o , r M V y t q 8 q q q q q q q 9 r r r r 5 o           ",
"            : 5 g M g r r 7 7 7 6 w w w w 6 r r r g h r , o         ",
"          o , r N g r r r r r t r r r r r r r j N h g 5 1 o         ",
"          : 2 g h r r t N h r r t r r r r j M B B h w 4 4 : o       ",
"        o , w k k r r y N S h h N M M M M V B M g 5 5 3 3 3 o       ",
"        # , 7 l z r r r t S S S S N V S B N y w 5 4 3 3 3 3 o       ",
"        : < 7 l x g r r h S S S B g N S M w 5 2 2 2 3 3 3 2 o       ",
"        , 1 r z J H W h D S S S g N h B r 2 2 3 e f 5 3 3 4 $       ",
"        3 6 N K X.a.N.A J D S S V g N S r 2 1 e } h.u 3 3 3 4       ",
"        3 7 N K $.L.Q.p.D T D S r B h N r 2 1 _ G.T.} 3 3 2 2       ",
"        2 7 x K @.I.W.l.E T T S S t B S r 2 3 ` J.Y.u.2 r 3 2       ",
"        2 g c.R.L.I.W.N.E.F.S S t V M N r u.T.G.J.Y.j.Y.N.3 3       ",
"        4 h a.z.M.U.P.H.#.S.T S S S S S r u.u.h.J.G.G.{ n.r 3       ",
"        r k ^ X.$.S.Z.a.I +.D J S S S S r d d ' h.h.u.d ] r 3       ",
"        t N J L a.F.L.c.R E J G S S S S M t y { G.G.u.C V r 2 o     ",
"      4 r N Y @.l.M.F.x.b.X.G S J D S S d C  .a.m.N.u.i.~ B r ,     ",
"      2 7 z P  .f.V.L.v.x.R h S K K S S g B p.z.V.G.d.d.U S r 2     ",
"      , 3 k D A W i.Z.O.o.J N h S D D M y N U [ a.h.! A S S 5 ,     ",
"        , 5 t r r W | J T J h k M V N y r N S S ~ ' r r r r < :     ",
"          : , 4 5 w t B K F r h r h t r t N S N h r 5 2 , : :       ",
"              : : 3 5 6 t g r h r h t t r t y r 5 2 , , ,           ",
"                  : : $ $ $ 3 g 5 t w 3 3 , $ $ $ : :               ",
"                      + o # # $ $ $ $ $ # # # + +                   ",
"                      X * ; ; & * . & & = ; = O .                   ",
"                      * = ; ; * & . + & ; ; = = &                   ",
"                      = ; ; ; ; & . + ; ; ; ; = *                   ",
"                      X = ; ; + .   . + - ; = O .                   ",
"                        . . . .       . . . . .                     "
};
