/* XPM */
static char *d887eea13b3c49b69b4f101d9c32f627Z0BQzrKkVoyRZXib[] = {
/* columns rows colors chars-per-pixel */
"47 50 210 2 ",
"   c None",
".  c #030303",
"X  c gray4",
"o  c #120D09",
"O  c #19120D",
"+  c #16100B",
"@  c #1B1B1B",
"#  c #2F0F16",
"$  c #251B13",
"%  c #2B1E15",
"&  c #2A151A",
"*  c #3B131C",
"=  c #36151B",
"-  c #2D2117",
";  c #2F2318",
":  c #332519",
">  c #3D2C1E",
",  c #36261B",
"<  c #3F1F26",
"1  c #2E2E2E",
"2  c #252525",
"3  c #392629",
"4  c #343434",
"5  c #3D3B3C",
"6  c #43141F",
"7  c #4B1A23",
"8  c #491621",
"9  c #5B1B29",
"0  c #551B28",
"q  c #631D2D",
"w  c #6A1F2E",
"e  c #6B1F32",
"r  c #402228",
"t  c #58292B",
"y  c #453221",
"u  c #4E3A29",
"i  c #533D29",
"p  c #5D2F32",
"a  c #463334",
"s  c #59383F",
"d  c #6E2031",
"f  c #672937",
"g  c #762235",
"h  c #7A2739",
"j  c #693339",
"k  c #63322C",
"l  c #56442C",
"z  c #674837",
"x  c #6E5732",
"c  c #78563C",
"v  c #714C35",
"b  c #796039",
"n  c #34114F",
"m  c #4B3659",
"M  c #563C40",
"N  c #7B3D4B",
"B  c #441667",
"V  c #541B7E",
"C  c #671C71",
"Z  c #4F2264",
"A  c #643569",
"S  c #6C357B",
"D  c #4F1754",
"F  c #444444",
"G  c #4B4B4B",
"H  c #514C49",
"J  c #535353",
"K  c #5D5D5D",
"L  c #684648",
"P  c #774A49",
"I  c #785243",
"U  c #6A5857",
"Y  c #7B6158",
"T  c #5B4766",
"R  c #764A62",
"E  c #7F4B73",
"W  c #6F5464",
"Q  c #6B6865",
"!  c #85263C",
"~  c #862538",
"^  c #9E2B3D",
"/  c #844B37",
"(  c #8E663E",
")  c #8B6D3C",
"_  c #876E3A",
"`  c #8D733D",
"'  c #992B45",
"]  c #813748",
"[  c #8C2F42",
"{  c #A32E4B",
"}  c #A72F47",
"|  c #B23043",
" . c #BB3243",
".. c #C13346",
"X. c #914C5B",
"o. c #8A5456",
"O. c #896546",
"+. c #956948",
"@. c #927641",
"#. c #957943",
"$. c #9B7D45",
"%. c #9E794B",
"&. c #936859",
"*. c #8B635A",
"=. c #A47648",
"-. c #A77758",
";. c #975A68",
":. c #9D5C77",
">. c #986C65",
",. c #887479",
"<. c #957B7A",
"1. c #8D6972",
"2. c #A16F66",
"3. c #AB7665",
"4. c #A16A76",
"5. c #AC7872",
"6. c #9F8047",
"7. c #A3834A",
"8. c #AB894D",
"9. c #A6834B",
"0. c #B5814F",
"q. c #B08D4F",
"w. c #AC8657",
"e. c #B38E52",
"r. c #B48559",
"t. c #B59152",
"y. c #BA9455",
"u. c #BE985A",
"i. c #B88A68",
"p. c #BB926B",
"a. c #B58372",
"s. c #C39B5B",
"d. c #C99F5C",
"f. c #CBA15E",
"g. c #CA986B",
"h. c #C99773",
"j. c #C98D77",
"k. c #CDA565",
"l. c #CAA366",
"z. c #D0A866",
"x. c #D4AC6C",
"c. c #D7AC6B",
"v. c #DCB477",
"b. c #D5A977",
"n. c #E3B979",
"m. c #5A1E84",
"M. c #5D1E8B",
"N. c #5F1C92",
"B. c #631F95",
"V. c #681E9F",
"C. c #6B1F8C",
"Z. c #5F208B",
"A. c #682494",
"S. c #6C1EA7",
"D. c #761EBA",
"F. c #731EB4",
"G. c #711FAF",
"H. c #6D21A4",
"J. c #7823B7",
"K. c #7E21C6",
"L. c #9A7C82",
"P. c #917592",
"I. c #A87E88",
"U. c #8124C7",
"Y. c #8925D6",
"T. c #928489",
"R. c #A7838B",
"E. c #B2848E",
"W. c #B4969B",
"Q. c #BA8F99",
"!. c #B69AA1",
"~. c #B9B5BB",
"^. c #D09485",
"/. c #E39C89",
"(. c #CAA888",
"). c #D9A98E",
"_. c #CBAC96",
"`. c #D7B497",
"'. c #E7A88A",
"]. c #E6B585",
"[. c #EEB98C",
"{. c #E3BB98",
"}. c #F6BE92",
"|. c #C099A2",
" X c #C0AAAE",
".X c #D3B6A1",
"XX c #C9AFB5",
"oX c #C9B5B9",
"OX c #D2B9BC",
"+X c #C9B6A2",
"@X c #E6BBA1",
"#X c #EEC192",
"$X c #DEC4AA",
"%X c #E5C5A9",
"&X c #FFD3AB",
"*X c #EBCDB3",
"=X c #EACAB6",
"-X c #EBD4BC",
";X c #F9D8BA",
":X c #F3C8B2",
">X c #FFE0BE",
",X c #CFBBC0",
"<X c #D6C5C9",
"1X c #C8CACF",
"2X c #E6DCD8",
"3X c #F2DBC2",
"4X c #FEE5C7",
"5X c #FFF1D9",
"6X c #FAF8F9",
"7X c #F4EDEE",
/* pixels */
"                                                            $.6.6.q.                          ",
"                                        6.6.6.6.6.    ` ` 6.t.y.x.s.6.`                       ",
"                                  6.6.y.u.f.u.>.B V U.H.E u.x.@.t.6.9.8.`                     ",
"                              6.7.y.s.s.l.x.i.Z Z.V G.U.J.E u.z.6.8.9.#.@.                    ",
"                            7.t.y.k.z.z.x.x.a.B J.Z.N.F.H.A 6.x.6.8.6.` @.                    ",
"                          8.u.z.z.x.x.x.x.c.p.A H.S.m.M.A.A.R w.@.6.#.` `                     ",
"                        8.y.l.x.x.x.x.z.x.x.z.2.S A.m.V H.K.H.R b ` ` ) `                     ",
"                      6.y.u.s.s.x.x.x.k.x.x.x.l.>.B m.M.A.K.Y.m.a c ` _                       ",
"                    #.$.s.y.f.x.c.d.f.n.#Xc.d.t.6.Z J.H.m.N.J.B a x _ `                       ",
"                    @.7.t.y.l.k.d.f.c.c.u.8.6.7.d.>.S H.K.K.m.B y x _                         ",
"                      #.9.6.t.f.d.d.c.s.s.g.g.7.y.w.A Z.V.B.B 3 3 l                           ",
"                        #.@.6.t.d.d.d.3.g.].).=.8.t.-.>.>.1.*.x                               ",
"                          x @.q.8.s.-.j.'.}.].#.6.t.t.y.s.y.8.@.                              ",
"                          a &.p.%.8.;.a./.&X].@.9.u.9.8.e.8.$._                               ",
"                          W 5./.3.I T m 5.'.].#.y.c.9.$.$.$.@.`                               ",
"                          3.^.&X3Xm 1XT.Y p.].7.y.z.7.#.#.$._                                 ",
"                          /.=X5X3Xm T ~.<.i.[.7.y.z.7.@.#.@._                                 ",
"                          /.:X5X3XP.P.1X.X[.[.e.z.c.9.@.@.`                                   ",
"                          3.).;X4XoXoX2X3X&X[.k.n.k.7.` @.                                    ",
"                            i.).-X;X5X4X4X}.b.v.n.%.b x z                                     ",
"                              2.^.).%X=X{.p.w.c.l.z t 7 *                                     ",
"                                T T 3.3.+.-.n.v.O.u [ ! 9 #                                   ",
"                                 .{ g q / r.k.r.' { { { g #                                   ",
"                                w h  .' j ( =.k q q g h g 9 #                                 ",
"                              o.D C.~ ! p l c ~ e 9 q q q 9 #                                 ",
"                            =.;.B.D.C e t t h | ' ! d 9 9 7 #                                 ",
"                          ( =.:.D.D.G.f t q ~ | | } ! g 9 7 *                                 ",
"                          ( =.:.D.F.M.-.v p f d g | } ! d 9 9 #                               ",
"                          ( =.:.F.m.F.-._.-X_.* g g g [ ! 9 9 #                               ",
"                          ( O.z n B s.-.p.`.>X%X9 g g g h ;.<Xj =                             ",
"                            ( P n n =.0.b.$X=X.X9 d g e N |.6XL.7                             ",
"                            ( O.;.Q.[.).%X$X_._.6 q g e X.OX6XW.r                             ",
"                            ( -.b.4X_..X=X%X`._.i 7 e X.I.,X7X,XR T.                          ",
"                            @.p.*X;Xc /.%X:X@Xw.+.* q E.,XOXXX7XXXoXoX                        ",
"                            =.h.3X+XP %X-X@Xj.L n & 8 4.I.4.<XoX<X,.s                         ",
"                            @ U +XG K I I / z 1 1 1 = t N ] I.XXR.s #                         ",
"                          . @ F Q G G H G J G F 1 1 & 7 e h [  X<X~.W =                       ",
"                          2 5 J G 4 G G G G G F 1 1 a 3 0 X.I.I.XXW.<.,.                      ",
"                          1 l J F 1 5 J J J J F 5 1 F 3 7 ] |.I.<XW.T.T.                      ",
"                          4 5 G G 1 1 J K K K J G 1 F 3 * M :.4.<XR.1.,.                      ",
"                          2 4 F F 1 1 F J K K K G 4 F 3 * 9 g g !.L =                         ",
"                          . . X @ @ 4 1 l J K K G G G G a * 9 g t * #                         ",
"                        O O % > , . . @ @ 2 1 1 1 1 1 2 & = 9 g *                             ",
"                      @ , , > > > o o     X . X . X . : y : = *                               ",
"                      O $ , > , $ O O     o + O : : : 3 > : % O                               ",
"                      O O % - $ O O +     - $ ; y y y > : - - O                               ",
"                        O O + O O O     - - : , y y y > ; - ; O                               ",
"                                        - , y i u u u y , - - O                               ",
"                                        O : i z z y > > ; O O                                 ",
"                                          O O O O O O O O                                     "
};
