/* XPM */
static char *f3fc464b76974951bba75c4ec89dbe6cjGsCwsLB1y3ySyB3[] = {
/* columns rows colors chars-per-pixel */
"33 50 203 2 ",
"   c None",
".  c #010101",
"X  c #080504",
"o  c #19120D",
"O  c #1D1D1D",
"+  c #1D1612",
"@  c #130E0A",
"#  c #2F0F16",
"$  c #241A12",
"%  c #2A1E15",
"&  c #2A1415",
"*  c #3B131B",
"=  c #34171C",
"-  c #2D2117",
";  c #34251B",
":  c #3C2C1D",
">  c #32182C",
",  c #232323",
"<  c #2E2E2E",
"1  c #2E2628",
"2  c #343434",
"3  c #3C3C3C",
"4  c #42151E",
"5  c #402F1F",
"6  c #4A1722",
"7  c #4E1823",
"8  c #541926",
"9  c #5B1B29",
"0  c #641D2D",
"q  c #681E2F",
"w  c #6C1F30",
"e  c #4A2A28",
"r  c #58282C",
"t  c #453222",
"y  c #4A3727",
"u  c #513C29",
"i  c #433938",
"p  c #5D3331",
"a  c #6A2632",
"s  c #752234",
"d  c #7B2337",
"f  c #772B39",
"g  c #763236",
"h  c #6A2832",
"j  c #58422C",
"k  c #5A4432",
"l  c #6D5635",
"z  c #7C513F",
"x  c #77503D",
"c  c #714739",
"v  c #7B6338",
"b  c #3B125B",
"n  c #671D58",
"m  c #512755",
"M  c #493357",
"N  c #53384A",
"B  c #7F3545",
"V  c #6A3249",
"C  c #601B6B",
"Z  c #713070",
"A  c #454545",
"S  c #4C4C4C",
"D  c #514C49",
"F  c #545454",
"G  c #5C5C5C",
"H  c #664544",
"J  c #645D59",
"K  c #73535A",
"L  c #7E654F",
"P  c #5C4766",
"I  c #795B72",
"U  c #746B7B",
"Y  c #8A273A",
"T  c #822539",
"R  c #972A3F",
"E  c #A12C3D",
"W  c #84513D",
"Q  c #8F673F",
"!  c #856C3A",
"~  c #896F3B",
"^  c #80673A",
"/  c #8D723E",
"(  c #90753F",
")  c #9E2D48",
"_  c #952C43",
"`  c #983348",
"'  c #813244",
"]  c #A42D47",
"[  c #B33245",
"{  c #A9334C",
"}  c #8B4C5A",
"|  c #895B4F",
" . c #966C42",
".. c #927641",
"X. c #967943",
"o. c #9B7D45",
"O. c #997252",
"+. c #936D4D",
"@. c #A1794B",
"#. c #B17E4D",
"$. c #A67C57",
"%. c #B27255",
"&. c #975766",
"*. c #856568",
"=. c #9D616E",
"-. c #9B7767",
";. c #966B74",
":. c #987478",
">. c #88767A",
",. c #A77165",
"<. c #B67B6A",
"1. c #A6727E",
"2. c #A06D6E",
"3. c #9F8047",
"4. c #A4844A",
"5. c #A8874C",
"6. c #AC8A4E",
"7. c #A08147",
"8. c #B5814F",
"9. c #B08C4F",
"0. c #AE8C51",
"q. c #B28E51",
"w. c #B38B5A",
"e. c #B69153",
"r. c #BA9556",
"t. c #BB9659",
"y. c #BE995B",
"u. c #B69458",
"i. c #93887C",
"p. c #BB8D6A",
"a. c #BF8270",
"s. c #C49C5C",
"d. c #C69D5A",
"f. c #CBA15E",
"g. c #C49D62",
"h. c #C6916E",
"j. c #CA8B78",
"k. c #CA9C7A",
"l. c #CCA463",
"z. c #CFA96A",
"x. c #C8A263",
"c. c #D4AC6D",
"v. c #D4AA6A",
"b. c #DBAF72",
"n. c #DBB374",
"m. c #DFB87A",
"M. c #C8A37F",
"N. c #E1B97C",
"B. c #E0B576",
"V. c #691C9A",
"C. c #6F238E",
"Z. c #6B1EA3",
"A. c #741EB6",
"S. c #7D7288",
"D. c #85369F",
"F. c #8E7C95",
"G. c #A97F88",
"H. c #978287",
"J. c #A3858A",
"K. c #AD9785",
"L. c #B48C95",
"P. c #B3969C",
"I. c #A69195",
"U. c #B79BA1",
"Y. c #BCA4A8",
"T. c #AAA8AD",
"R. c #D79586",
"E. c #C29F95",
"W. c #CCA98C",
"Q. c #D8B796",
"!. c #D9AB8A",
"~. c #E8A08D",
"^. c #E5BE81",
"/. c #E5B38C",
"(. c #E8B89C",
"). c #F2B693",
"_. c #C09AA3",
"`. c #D7BCA2",
"'. c #C6AEB3",
"]. c #CAB8BB",
"[. c #D2B8BE",
"{. c #E0B7A1",
"}. c #E7C083",
"|. c #FCC69A",
" X c #DCC5AE",
".X c #E2C5A8",
"XX c #FFD5AE",
"oX c #E7CDB3",
"OX c #EED5BA",
"+X c #FBDBBC",
"@X c #F3D4B6",
"#X c #F4CDB1",
"$X c #B8BEC5",
"%X c #D3BEC2",
"&X c #CDBDC1",
"*X c #D8C6CA",
"=X c #D8D5D6",
"-X c #E4D7DA",
";X c #E2CECA",
":X c #FFE5C5",
">X c #FFEBCE",
",X c #FDEAD4",
"<X c #EEE6E8",
/* pixels */
"              ........                                            ",
"          ~ q.l.u.e.6.( /     3.3.3.3.3.                          ",
"        / 5.3.t.0.u.s.4.( ~ 3.5.6.6.0.q.3.3.3.                    ",
"        ..4.4.4.0.y.y.4./ 3.6.s.z.l.x.x.e.e.6.5.3.                ",
"        ../ q.o.y.y.4...o.s.l.n.N.m.c.c.l.l.d.e.5.4.              ",
"        / / 5.o.u.e.( / r.n.N.n.c.c.c.z.c.c.l.d.y.r.4.            ",
"        ~ ~ ....5.4.( ( f.}.n.c.c.c.c.f.c.c.c.c.v.d.r.3.          ",
"          ~ ....6.7...r.c.}.}.}.b.d.r.c.c.c.l.v.c.c.c.e.4.        ",
"          / ~ ..../ o.x.^.b.b.l.d.g.m.c.c.l.n.^.N.v.t.d.4.X.      ",
"            ~ ..../ o.f.n.c.d.d.e.u.}.N.f.n.^.N.c.r.o.t.4.X...    ",
"              / / X.5.f.c.l.t.t.9.9.c.v.e.n.m.l.y.4...5.o.X.      ",
"                / o.e.d.l.d.t.q.5.5.y.0.5.l.l.r.5.4.L o...        ",
"                ( X.4.q.d.q.e.5.o.4.0.o.r.q.9.@.$.h.P ..          ",
"                ~ ..3.4.r.o.e.5.X.X.3...r.4.( @.<.R.P             ",
"                ~ / ( 7.3.( l.d.4.v y k M M H <.~.R.P             ",
"                  / ( o.X.( g.s.5.w.j.x U T.U I.+X).,.            ",
"                  ! / X.....x.y.5.w./.L $XS.M I.,X,XR.            ",
"                    / / ....x.l.t.y.).a.=XF.S.T.,X,X~.            ",
"                      ! l ..y.n.z.v.|.XX-X X'.;X:X#Xa.            ",
"                        ; v 4.z.B.b./.:X>X>X:X:XoXk.W             ",
"                        # ; | s.c.g.+.|.>X>XXX).j.z               ",
"                      * d ) p ..z.N.p.| ,.,.K P P                 ",
"                      * ) { ) ) %.g.g.r q f _ { [                 ",
"                    4 w T d s w h W 8.e R ] R d s                 ",
"                  # * 0 0 0 9 0 d f l y Y T Z C V 8.              ",
"                  # * 9 9 0 s Y ] ` r e q n V.V.Z 8.              ",
"                  * 4 9 9 T ] [ [ E s 7 g C.A.A.Z.8.Q             ",
"                # 4 9 9 d ] [ Y w f p e 8.Z Z.A.D.q.Q             ",
"                # 4 9 9 ] s s d 8 H :X`.8.D.V.Z.D.8.Q             ",
"              # e ;.L.B d d s 0 ,..X@XW.8.#.Z b m  .Q             ",
"              # K ].-X1.0 d d 0 -.oX.X`.8.8.V b m Q               ",
"              # *.*X<XL.w s q 7 *.`.Q.OXW.Q.E.:.| Q               ",
"              I I.=X-X'.=.s 8 r -.Q.Q.OX{.W.oX(.p.Q               ",
"            ].Y.-X;X].[.%Xs 4 c O.W.#XoX(.O.W.#XQ. .              ",
"            N Y.*X*X'.&.U.8 * > p | R.OX;XO.K.oX(.@.              ",
"            # *.P.P.=.s ' # 1 < 1 i z L | J F i.K.O               ",
"          = J.&X].;.B a 0 & 1 < 3 A D D D S S F G < .             ",
"          >.H.'.P.G.1.B * N < < 3 S S S S S i A S S ,             ",
"          H.J. X_.L.G.a & S 2 3 A S F G F A 2 3 S F 2             ",
"          >.I ].L.=.} 9 # S 2 3 F F G G F 2 < 3 S A 2             ",
"            # :.} s q 6 = S 3 A F G G G A 2 < 2 i 2 ,             ",
"            # 6 q q 7 = A S A A F F F A < < , O O X .             ",
"              # 0 q 6 # O < < < < < < O O X . + : : o o           ",
"                # # # 5 u . . . . . .     o o % : : : 5 o         ",
"                + $ % ; t : : : - + @     o o o - : : $ o         ",
"                o $ - - ; t t t : - % -     o o o % % o           ",
"                o $ - - ; t t t t : ; -       o o o o o           ",
"                @ $ % - 5 y y u u u : %                           ",
"                    o o : : ; u j j t o                           ",
"                        o o o o o o o                             "
};
