/* XPM */
static char *a58c6543389e4545e25b985d960ae86blDpV5dVGJpD7naXy[] = {
/* columns rows colors chars-per-pixel */
"60 60 221 2 ",
"   c None",
".  c #000001",
"X  c #050308",
"o  c #15110F",
"O  c #010012",
"+  c #000717",
"@  c #1C1513",
"#  c #1F1815",
"$  c #1B1C1C",
"%  c #15171A",
"&  c #290000",
"*  c #211916",
"=  c #241C1A",
"-  c #291E1C",
";  c #2D1C16",
":  c #1C211F",
">  c #24211E",
",  c #2A201F",
"<  c #35231D",
"1  c #1B1F20",
"2  c #140025",
"3  c #251E23",
"4  c #1D2322",
"5  c #1C2528",
"6  c #232525",
"7  c #2D2322",
"8  c #242926",
"9  c #252C2A",
"0  c #2A2D2B",
"q  c #292627",
"w  c #302623",
"e  c #322926",
"r  c #332C2B",
"t  c #3A2B26",
"y  c #2C322D",
"u  c #27312C",
"i  c #3A312E",
"p  c #37332C",
"a  c #2B2C35",
"s  c #382D36",
"d  c #2D3433",
"f  c #2B3532",
"g  c #323532",
"h  c #3B3432",
"j  c #333B35",
"k  c #363E39",
"l  c #3A3B3B",
"z  c #38363A",
"x  c #4C1917",
"c  c #640000",
"v  c #7A1A00",
"b  c #5E192A",
"n  c #442C25",
"m  c #442A26",
"M  c #53262A",
"N  c #453128",
"B  c #54352A",
"V  c #58392D",
"C  c #433A36",
"Z  c #453C3A",
"A  c #493C3A",
"S  c #503D33",
"D  c #652A2D",
"F  c #623E2D",
"G  c #643E30",
"H  c #763331",
"J  c #3A423D",
"K  c #37413B",
"L  c #7F4319",
"P  c #4B423D",
"I  c #48463B",
"U  c #50463E",
"Y  c #694434",
"T  c #634337",
"R  c #764D39",
"E  c #393843",
"W  c #453D45",
"Q  c #413F55",
"!  c #563241",
"~  c #3D4541",
"^  c #3E4941",
"/  c #4B4445",
"(  c #434B45",
")  c #474C49",
"_  c #4A4D4B",
"`  c #474746",
"'  c #514641",
"]  c #544B45",
"[  c #534C4C",
"{  c #5A4A47",
"}  c #475149",
"|  c #4A544C",
" . c #4E594F",
".. c #5B524C",
"X. c #57544B",
"o. c #4A495B",
"O. c #574B5A",
"+. c #4E5450",
"@. c #4F5950",
"#. c #535554",
"$. c #5C5552",
"%. c #535C54",
"&. c #5A5D56",
"*. c #5B5C5C",
"=. c #54525A",
"-. c #674346",
";. c #73414F",
":. c #64574E",
">. c #645B56",
",. c #6A5F5C",
"<. c #675C57",
"1. c #7A564B",
"2. c #576057",
"3. c #596157",
"4. c #5C645B",
"5. c #576058",
"6. c #7E604E",
"7. c #61635D",
"8. c #6C615B",
"9. c #67675A",
"0. c #7D685F",
"q. c #585969",
"w. c #48516E",
"e. c #725D67",
"r. c #5C6165",
"t. c #6D6563",
"y. c #646B62",
"u. c #6B6D6D",
"i. c #656667",
"p. c #796D68",
"a. c #7C736D",
"s. c #7D7067",
"d. c #696B77",
"f. c #777677",
"g. c #6E7275",
"h. c #9A0000",
"j. c #B31016",
"k. c #8E2816",
"l. c #8B2B2E",
"z. c #C63608",
"x. c #84583F",
"c. c #825943",
"v. c #855E4A",
"b. c #894B50",
"n. c #A15457",
"m. c #9B694C",
"M. c #8A6D58",
"N. c #966C52",
"B. c #9A7258",
"V. c #B27E51",
"C. c #895F64",
"Z. c #B15E66",
"A. c #85756A",
"S. c #997C69",
"D. c #837A76",
"F. c #877B75",
"G. c #A56E6E",
"H. c #C37D48",
"J. c #C0797C",
"K. c #8A837C",
"L. c #8C887C",
"P. c #93887D",
"I. c #A0857F",
"U. c #AF8467",
"Y. c #D08E69",
"T. c #4F5C80",
"R. c #505784",
"E. c #647F81",
"W. c #696F84",
"Q. c #8D748D",
"!. c #898786",
"~. c #958B85",
"^. c #9C9188",
"/. c #8E9091",
"(. c #989695",
"). c #8D8E97",
"_. c #A3968A",
"`. c #A19488",
"'. c #A69B97",
"]. c #BD9A9A",
"[. c #B5898C",
"{. c #ACA49A",
"}. c #A9A898",
"|. c #9598A3",
" X c #90A5A5",
".X c #ACA9A5",
"XX c #BEB7A9",
"oX c #A9B9B8",
"OX c #BEBBB6",
"+X c #A8A8B0",
"@X c #DE9E8B",
"#X c #CDB09F",
"$X c #C2AB9F",
"%X c #C6BCAD",
"&X c #C0B5A6",
"*X c #C3BDB1",
"=X c #C8BFB1",
"-X c #DEB8BB",
";X c #D4C3B6",
":X c #C5C1B9",
">X c #CBBDD5",
",X c #BBC1C0",
"<X c #A6C5CA",
"1X c #C8C5C5",
"2X c #DCD3CC",
"3X c #D6D3C9",
"4X c #D0CFD3",
"5X c #DADAD8",
"6X c #D1D0D1",
"7X c #E5D9D8",
"8X c #D3E4E1",
"9X c #E3E3E3",
"0X c #E7EAE8",
"qX c #F4EDE9",
"wX c #E8F1EE",
"eX c #EDEBFF",
"rX c #EFF6FF",
"tX c #F5F4F4",
"yX c #F4FDFF",
"uX c #FEFEFF",
"iX c #F7F1E2",
/* pixels */
"                                                        uXuXqX2X#X$XuX                                                  ",
"                                                      -Xn.b.D H Y x.;X                                                  ",
"                                                    qXj.x = > < c.G.'.7XuXuX                                            ",
"                                                    0Xi N < < ; G A.s.M.S.;X2X;X1X9XuX                                  ",
"                                                      6.N.c.V o .X2X^.S F R B.U.B.O.4X                                  ",
"                                                      R Y Y T u.      0XF.B G B N.T +XtX                                ",
"                                                      B T Y n W q.8X9X5X1X Xt < < A D.tX                                ",
"                                                      C ; ; ; a w.q.<X XoXE.[ z z [ ,X                                  ",
"                                                    yXt.m N V m w.w.a.XX~.K.>.p.~.t.wX                                  ",
"                                                      W 1.T v.S E q.OXiX2X^.%XXXF.oXwX                                  ",
"                                                    W [ p.A.' 3 7 E '.(..XD...$.A.8X                                    ",
"                                                [.C E e 3 7 w i r $ .Xg.r.!.X.,.~.                                      ",
"                                              ;.A i W =._ w w Q.*.o K.!.P.P.8.8.`.                                      ",
"                                              ! i e $.W.W W | f.~ E C *X%XuX                                            ",
"                                              e 3 w W |.f.).$._ q # @ P.&X                                              ",
"                                            M e - A d.).d.g.C * # @ o { _.                                              ",
"                                            7 7 # =.q.(.d.7 r = = @ @ 7 A.                                              ",
"                                          uXw = # = s h z h w - = @ @ o ..yX                                            ",
"                                          %X&X_.] 7 q e f.7 7 - - * * @ 7 _.                                            ",
"                                        uX~.F.A.C 7 h !.F./ w , * = * @ @ >.uX                                          ",
"                                      uXR.E W A q e 7 <.p.t.w , * = * * 3 0                                             ",
"                                    uXo.q.Y.v.N w = = Z P w 7 - = - * * = z                                             ",
"                                    eX=.{ V.N.c.w - = = 7 e , - = 3 @ = $ 2                                             ",
"                                  uX>XQ.3 Y.N.R { * e , = w = - - w = = 7                                               ",
"                                    eX      Y S :.:.> < > > = - 7 7 = 7 w                                               ",
"                                        uX  S.:.] >.] , e , , < < > = , =                                               ",
"                                            A.p N ..~.$.C 7 7 7 = - < > =                                               ",
"                                      uX      e N S K.>.P P , * = * = * *                                               ",
"                                        rX    i D.(.{.%Xa.8.C = * * * @ -                                               ",
"                                            G.h _ #.#.7._ 9 <.= * = - * @ X                                             ",
"                                              & e 8.....>...8.r @ @ * # * 7                                             ",
"                                              . $ p ] 8.^.p.P >.* @ @ # = h                                             ",
"                                            v 9 g l j 8 $.,.A z '.t.[ ] U 8.                                            ",
"                                            & q ( [ K y 6 6 ' ' j {.3X2X].M.                                            ",
"                                          h.M ( %.y.( ~ u a 0 8.I 2.$.7.4.)                                             ",
"                                          c e | 4.4.| ^ u d $ w I 9.4.*.3.%.0                                           ",
"                                        z.-.d ) y.%.} J 5 f 5 : K 4.4.3.4.2.~                                           ",
"                                      U.l./.k +.y.%.| j 4 4 $ 4 g ( @.2.9.4.(                                           ",
"                                      b.].f.~ +.y.%.} J u _ f.4 8 j @.&.4.4.j                                           ",
"                                      C.7Xu.~ %.y.@.} ^ 4 g.,X6 9 8 | %.4.@.f                                           ",
"                                      uXuX4.~ &.4. .( y 8 +XwX0 4 : (  .4.%.g                                           ",
"                                          *.^ &.4.} g 0 $ 5X  /.: $ ^ 2.4.@.y )                                         ",
"                                          #.( *.4.J f 9 )       ) 4 } r.4.@.0 %..                                       ",
"                                          +.( %.&.( ~ 4 /.        K 2.4.2.+.( 4.+                                       ",
"                                          X.K %.3.| j d           5 %.%.&.| | 2.+                                       ",
"                                          %.y %.&.( f i.          . y K K K ( @.+                                       ",
"                                          %.y  .2.J ( g.          . g k j 8 j l                                         ",
"                                        uX#.k 2. .( } g.            . . 4 8 g +                                         ",
"                                        9Xk  .%.%.| j @.              . 8 0 U                                           ",
"                                        (.^ %.| j 9 u d                   X I                                           ",
"                                        K j +.( | K 4 $                     X                                           ",
"                                      uXy.j | @.k j j                                                                   ",
"                                      5XK u K ^ ( | *.                        O                                         ",
"                                      1X= 0 j ^ y 4 4.                        S.l.                                      ",
"                                      9XL.t.d f 8 5 I                         }.b.                                      ",
"                                    tXOX}.!.-.> 8 1                         M I.:X[.                                    ",
"                                  0X:X3X3X'.b 3 s (.                        x 6.}.}.Y.                                  ",
"                                  ].J.'.~.,.e.uXuX                            k.U.:XY.Y.                                ",
"                                  1XC.b.Z.$XtX                                  k.l.l.H                                 ",
"                                    uXuX                                                                                "
};
