/* XPM */
static char *f56ad4e76b8b44c7f8cf8e2dc768b256iCt7qrwijGtoPm44[] = {
/* columns rows colors chars-per-pixel */
"60 60 179 2 ",
"   c None",
".  c #042CA6",
"X  c #052CA9",
"o  c #082FAB",
"O  c #0732AA",
"+  c #0A33AD",
"@  c #0332B6",
"#  c #0E35B1",
"$  c #0232BB",
"%  c #0936BF",
"&  c #0638BE",
"*  c #0A3ABF",
"=  c #0635C2",
"-  c #0D3CC3",
";  c #023DCE",
":  c #133DC5",
">  c #023CD4",
",  c #033DDB",
"<  c #023FE2",
"1  c #1242CA",
"2  c #1442C6",
"3  c #0444D3",
"4  c #0348D7",
"5  c #0343DB",
"6  c #034BDD",
"7  c #0D4FD9",
"8  c #194DD9",
"9  c #1551DE",
"0  c #0341E3",
"q  c #044BE4",
"w  c #0C4CE7",
"e  c #0245EB",
"r  c #014AEC",
"t  c #0A4CEB",
"y  c #134DEC",
"u  c #015AE7",
"i  c #0254EA",
"p  c #0D55EF",
"a  c #015BEC",
"s  c #1656EC",
"d  c #1855EB",
"f  c #1758EF",
"g  c #1859EF",
"h  c #1451E4",
"j  c #014EF1",
"k  c #084DF0",
"l  c #0545F1",
"z  c #134EF0",
"x  c #0153F3",
"c  c #0F57F0",
"v  c #025BF4",
"b  c #0E58F3",
"n  c #0159FA",
"m  c #1557F0",
"M  c #1659F0",
"N  c #1859F1",
"B  c #0162EF",
"V  c #046FEE",
"C  c #096CEE",
"Z  c #1063EF",
"A  c #1E63EF",
"S  c #067BEE",
"D  c #1A7CEA",
"F  c #0263F3",
"G  c #016BF4",
"H  c #016BF8",
"J  c #1E64F0",
"K  c #126DF5",
"L  c #0271F5",
"P  c #0872F3",
"I  c #057CF5",
"U  c #087CF6",
"Y  c #037DFC",
"T  c #087CF9",
"R  c #177BF4",
"E  c #317EE8",
"W  c #0583F7",
"Q  c #078DF5",
"!  c #098DF5",
"~  c #0384FD",
"^  c #018CFD",
"/  c #0A8DFA",
"(  c #1288FA",
")  c #1A8AFA",
"_  c #0792F7",
"`  c #0891F7",
"'  c #0194FD",
"]  c #009CFE",
"[  c #099CFB",
"{  c #0B99F4",
"}  c #1097FB",
"|  c #1B97FC",
" . c #1098FC",
".. c #3C85E7",
"X. c #238AFB",
"o. c #2196FC",
"O. c #2C94FD",
"+. c #2298FC",
"@. c #2F9FFD",
"#. c #3394FD",
"$. c #319CFE",
"%. c #09A6F4",
"&. c #01A4FE",
"*. c #01ACFE",
"=. c #08AFFC",
"-. c #19A7FA",
";. c #11ACFB",
":. c #1AA8FC",
">. c #07B8F7",
",. c #00B3FD",
"<. c #09B3FA",
"1. c #00B9F9",
"2. c #1AB9FB",
"3. c #24A6FD",
"4. c #2CA2FD",
"5. c #32A4FE",
"6. c #32ACFF",
"7. c #24B6FC",
"8. c #2CB4FC",
"9. c #32B5FE",
"0. c #32BDFE",
"q. c #4F9AEA",
"w. c #5DAAED",
"e. c #70BEF3",
"r. c #0FC1F8",
"t. c #05CEFD",
"y. c #02D4FD",
"u. c #02DCFD",
"i. c #08DBFB",
"p. c #0DD1F9",
"a. c #15D3FB",
"s. c #2CC2F9",
"d. c #34C2FB",
"f. c #23DDFD",
"g. c #01E2FD",
"h. c #08E6FA",
"j. c #13E4FC",
"k. c #1AE0FC",
"l. c #2DE9F7",
"z. c #2AE7FE",
"x. c #2BE8F9",
"c. c #33E4FE",
"v. c #39E6FC",
"b. c #35E9FC",
"n. c #39E9FB",
"m. c #43D0F2",
"M. c #77C9F4",
"N. c #41E6F5",
"B. c #43EAF7",
"V. c #4FE9F7",
"C. c #5DEBF7",
"Z. c #5DE4FD",
"A. c #65E7FD",
"S. c #65EDFD",
"D. c #6BECF8",
"F. c #79E0F2",
"G. c #77E7FE",
"H. c #77E9FC",
"J. c #7CECFE",
"K. c #65F1F9",
"L. c #7FF0FE",
"P. c #8ADDF9",
"I. c #80EBFF",
"U. c #80EAFE",
"Y. c #81ECFD",
"T. c #80EEFD",
"R. c #80ECFE",
"E. c #80ECFB",
"W. c #94E6F7",
"Q. c #82F1FB",
"!. c #9AF7F8",
"~. c #9DFBFC",
"^. c #A6F9FA",
"/. c #A3FAFD",
"(. c #A3FBFD",
"). c #A1FAFD",
"_. c #A4FCFC",
"`. c #ABFCFD",
"'. c #BCFCFD",
/* pixels */
"                                                                                                                        ",
"                                                                                                                        ",
"                                                                                                                        ",
"                                                                                                                        ",
"                                                                                                                        ",
"                                                                                                                        ",
"                                                                                                                        ",
"                                                                                                                        ",
"                                                                                                                        ",
"                                                                                                                        ",
"                                                                                                                        ",
"                                                                                                                        ",
"                                                                                                                        ",
"                                                                                                                        ",
"                                                                                                                        ",
"                                    y d m m m m m m m N M N g N N g N m N m s m s z                                     ",
"                                  e b A A A A A A A J J A A A A J J A A A J A A J m r                                   ",
"                                w J W.`.(.(.(.(./.(.(.(./.'.'.^.(./.(.(././.(.(.(.F.Z t                                 ",
"                              w c P.~.B.b.b.n.n.n.b.n.n.K.Q.Q.K.n.n.b.b.n.n.b.b.x.h.r.x w                               ",
"                            w k M.~.l.j.b.b.b.c.c.b.n.K.Q.J.Q.Q.S.n.b.b.b.b.b.b.j.g.h.>.x h                             ",
"                          9 l e.(.N.u.g.z.c.c.z.c.v.S.Q.L.Q.L.L.T.S.v.c.c.b.b.z.g.g.g.g.%.r t                           ",
"                        8 k w._.V.u.u.u.k.c.c.c.v.S.T.T.T.T.T.J.Y.E.S.v.c.c.b.a.u.u.u.u.g.{ e 7                         ",
"                        e q.^.C.i.u.u.u.i.c.c.c.S.J.I.I.T.I.T.T.I.E.I.A.c.c.c.i.u.u.u.u.u.y.Q t                         ",
"                      t ..^.D.i.y.y.y.u.y.f.c.A.I.I.I.I.I.I.I.I.U.I.I.E.A.c.f.y.y.y.y.y.y.u.y.S t                       ",
"                    0 E !.J.p.y.t.y.t.y.t.a.Z.H.G.G.G.G.G.H.H.H.G.G.G.H.H.Z.a.y.y.y.y.y.t.y.t.t.G <                     ",
"                    e D m.<.,.,.,.1.,.,.,.>.s.d.d.d.d.d.d.d.d.d.d.d.d.d.d.s.1.,.,.,.,.,.,.,.1.<.C e                     ",
"                    e n ! =.,.*.,.*.,.,.,.,.2.d.d.d.d.d.d.d.d.d.d.d.d.d.d.2.*.,.,.*.,.*.,.*.=.L x e                     ",
"                    0 Z L ! *.*.*.*.*.*.*.*.=.d.0.0.0.0.0.0.0.0.0.0.0.0.d.<.*.*.*.*.*.,.*.*.I n x <                     ",
"                    < F H L / *.*.*.*.*.*.*.&.7.0.0.0.0.0.0.9.0.0.0.0.0.7.*.&.*.*.*.*.*.*.U v n x <                     ",
"                    < F L L L ! &.*.&.&.&.&.&.;.9.0.9.9.9.0.9.9.9.9.9.9.;.&.&.*.*.&.&.&.W n n x x 0                     ",
"                    5 v H H H L ! &.&.&.&.&.&.&.8.9.9.9.9.9.9.9.9.9.9.8.&.&.&.&.] &.&.W v x n x r 5                     ",
"                    > i H H G G G _ ] ] ] ] ] ] :.6.6.9.9.6.9.9.9.9.9.-.] ] ] ] ] &.~ x n x x x t ,                     ",
"                      > i G G F G V _ ] ] ] ] ' [ 6.9.6.6.6.6.6.6.6.6.[ ] ] ] ] ] ~ v x x x x r >                       ",
"                      2 > i G G G F V _ ' ' ] ' ' 3.6.6.6.6.6.6.6.6.3.' ' ' ' ' ^ v x x x x r 5 -                       ",
"                        2 > i F F G G V / ' ' ' ' } 5.6.5.6.6.5.5.6.} ' ' ' ' ~ v x x x x e > -                         ",
"                          1 > u G F F F G ` ^ ^ ^ ^ 4.5.5.5.5.5.5.4.^ ^ ^ ' ~ v r x j j r > 1                           ",
"                            * > i F B F B V ^ ^ ^ ^ | $.5.5.5.$.5.| ^ ^ ^ ~ v x j x j q > -                             ",
"                              - > a F B F B C ~ ^ ^ / @.$.$.5.5.5./ ~ ^ ~ v i j r j r > %                               ",
"                                = 3 u F B B B P ~ ~ ~ | $.$.$.$.o.~ ~ ~ F r x r j t ; =                                 ",
"                                  = > a a B B B P ~ ~ ( $.$.$.$.( ~ Y v r r r x q > =                                   ",
"                                    = 3 u v a v B L Y ~ O.$.O.O.Y Y v j r r r e > %                                     ",
"                                      % 3 u a a a a P Y ) #.#.) Y F r r e r r ; $                                       ",
"                                        = 3 i a u a a P U #.#.T F r r r j e > =                                         ",
"                                          $ 3 u a a u u P X.X.F r l e r e ; =                                           ",
"                                            $ 3 i u a i u R K r e e e r > $                                             ",
"                                              @ 5 i i a i u q e e e e , $                                               ",
"                                              + $ 4 i i i i e e e e > $ o                                               ",
"                                                + $ 6 i i r e e e > $ #                                                 ",
"                                                  + $ 6 i i 0 e , $ +                                                   ",
"                                                    o $ 6 i e , @ o                                                     ",
"                                                      o @ q , @ .                                                       ",
"                                                        . @ @ .                                                         ",
"                                                          X X                                                           ",
"                                                                                                                        ",
"                                                                                                                        ",
"                                                                                                                        ",
"                                                                                                                        ",
"                                                                                                                        ",
"                                                                                                                        ",
"                                                                                                                        "
};
