/* XPM */
static char *_18baef4fb124eabeba145ef4964506a1woDoO3bvxRDMIxk[] = {
/* columns rows colors chars-per-pixel */
"60 60 195 2 ",
"   c None",
".  c #627EEA",
"X  c #637FEA",
"o  c #647FEA",
"O  c #6480EA",
"+  c #6580EA",
"@  c #6480EB",
"#  c #6580EB",
"$  c #6581EB",
"%  c #6680EA",
"&  c #6681EA",
"*  c #6681EB",
"=  c #6782EA",
"-  c #6682EB",
";  c #6782EB",
":  c #6882EB",
">  c #6983EB",
",  c #6984EB",
"<  c #6A84EB",
"1  c #6A85EB",
"2  c #6B85EB",
"3  c #6B86EB",
"4  c #6C86EB",
"5  c #6D87EB",
"6  c #6E87EB",
"7  c #6A85EC",
"8  c #6C87EC",
"9  c #6D88EB",
"0  c #6E88EB",
"q  c #6F88EB",
"w  c #6F89EB",
"e  c #6E88EC",
"r  c #6E89EC",
"t  c #7089EB",
"y  c #708AEB",
"u  c #718AEB",
"i  c #7089EC",
"p  c #708AEC",
"a  c #718AEC",
"s  c #728BEC",
"d  c #738BEC",
"f  c #738CEC",
"g  c #738DEC",
"h  c #748DEC",
"j  c #758DEC",
"k  c #758EED",
"l  c #768EEC",
"z  c #778FEC",
"x  c #768EED",
"c  c #778FED",
"v  c #7890ED",
"b  c #7891ED",
"n  c #7991ED",
"m  c #7A91ED",
"M  c #7A92ED",
"N  c #7B92EE",
"B  c #7C93ED",
"V  c #7D93ED",
"C  c #7D94EE",
"Z  c #7E94EE",
"A  c #7E95EE",
"S  c #7F95EE",
"D  c #8096EE",
"F  c #8097EE",
"G  c #8197EE",
"H  c #8297EE",
"J  c #8298EE",
"K  c #8398EE",
"L  c #8399EE",
"P  c #8499EF",
"I  c #849AEE",
"U  c #859BEE",
"Y  c #849AEF",
"T  c #859AEF",
"R  c #869BEF",
"E  c #859CEE",
"W  c #869CEE",
"Q  c #869CEF",
"!  c #879CEF",
"~  c #889DEF",
"^  c #899EEF",
"/  c #899FEF",
"(  c #8A9FEF",
")  c #8B9FEF",
"_  c #8BA0EF",
"`  c #8CA1EF",
"'  c #8BA0F0",
"]  c #8CA0F0",
"[  c #8CA1F0",
"{  c #8DA1F0",
"}  c #8DA2F0",
"|  c #8EA2F0",
" . c #8FA3F0",
".. c #90A3F0",
"X. c #90A4F0",
"o. c #91A4F0",
"O. c #91A5F0",
"+. c #92A5F0",
"@. c #92A5F1",
"#. c #93A6F0",
"$. c #93A7F0",
"%. c #92A6F1",
"&. c #94A7F0",
"*. c #95A7F0",
"=. c #94A7F1",
"-. c #94A8F1",
";. c #95A8F1",
":. c #96A8F1",
">. c #96A9F1",
",. c #97A9F1",
"<. c #96AAF1",
"1. c #97AAF1",
"2. c #97AAF2",
"3. c #98AAF1",
"4. c #99ABF1",
"5. c #99ABF2",
"6. c #99ACF1",
"7. c #9AACF1",
"8. c #9BACF1",
"9. c #9BADF1",
"0. c #9BADF2",
"q. c #9CADF1",
"w. c #9DAEF2",
"e. c #9EAFF2",
"r. c #9EB0F2",
"t. c #9FB0F2",
"y. c #A1B1F2",
"u. c #A0B2F3",
"i. c #A3B3F2",
"p. c #A3B3F3",
"a. c #A4B4F2",
"s. c #A4B4F3",
"d. c #A4B5F3",
"f. c #A6B6F3",
"g. c #A7B6F3",
"h. c #A7B7F4",
"j. c #A8B7F3",
"k. c #A8B8F3",
"l. c #A9B8F3",
"z. c #A9B9F3",
"x. c #A9B8F4",
"c. c #AABAF4",
"v. c #ABBAF4",
"b. c #ACBAF4",
"n. c #ADBCF4",
"m. c #AEBCF4",
"M. c #AEBDF4",
"N. c #AFBDF4",
"B. c #AFBDF5",
"V. c #B1BFF4",
"C. c #B2C0F5",
"Z. c #B3C0F5",
"A. c #B4C1F5",
"S. c #B5C1F5",
"D. c #B5C2F5",
"F. c #B7C3F5",
"G. c #B5C2F6",
"H. c #B7C3F6",
"J. c #B7C4F5",
"K. c #B8C4F6",
"L. c #B9C5F6",
"P. c #BBC6F6",
"I. c #BBC7F6",
"U. c #BCC8F6",
"Y. c #BCC9F6",
"T. c #BDC8F7",
"R. c #BEC9F7",
"E. c #BFCBF6",
"W. c #BFCAF7",
"Q. c #C0CBF7",
"!. c #C0CCF6",
"~. c #C2CDF7",
"^. c #C3CDF7",
"/. c #C5CFF7",
"(. c #C7D1F7",
"). c #C9D2F8",
"_. c #CAD2F8",
"`. c #CAD3F8",
"'. c #CDD5F8",
"]. c #CDD6F8",
"[. c #CFD8F8",
"{. c #D4DCF9",
"}. c #DCE3FB",
"|. c #E0E6FB",
" X c #E6EBFB",
".X c #E6EBFC",
"XX c #ECEFFD",
"oX c #EDF0FD",
"OX c #EFF1FD",
"+X c #F1F3FD",
"@X c #F7F8FE",
"#X c #F8F9FE",
"$X c #FBFCFE",
"%X c #FEFEFF",
"&X c white",
/* pixels */
"                                                  s.*.T e X o f T %.h.                                                  ",
"                                          | 4 X X X . . X X X X . . X X X 7 3.                                          ",
"                                    0.3 . . . . X . . . . . X X . . . . X . . . 6 3.                                    ",
"                                | @ X X . . . . X X . . . . . X . . . . X X . . X X ; 3.                                ",
"                            p.. X X . . . . . . . . . . . . . . . . . . . . . . X X . . ; h.                            ",
"                          6 X . X X . . . . . . . . . . . . . . . . . . . . . . . X . . X X s                           ",
"                      x.X X . . X . . . . . . . . . . . X X . . . . . . . . . . . . . . . . . X                         ",
"                    %.X X X . . . . . . . . . . . . . . . X 6 . . . . . . . . . . . . . . . . . X q.                    ",
"                  G X X . . . . . . . . . . . . . . . . . X '.>.X X X . . . . . . . . . . . . . X X )                   ",
"                G X X X . . . . . . . . . . . . . . . X . x.#XW.N X X . . . . . . . . . . . . . X X X |                 ",
"              T . . . . . . . . . . . . . . . . . . . X ^ &X#XQ.G.6 . X . . . . . . . . . . . . . . X X 0.              ",
"            l.. . . . . . . . . . . . . . . . . . . . 7 OX&X#XQ.W.u.. X . . . . . . . . . . . . . . X X X               ",
"            . . . . . . . . . . . . . . . . . . . . X ~.&X&X#XQ.Q.Q.) X . . . . . . . . . . . . . . . . . o             ",
"          3 . . . . . . . . . . . . . . . . . . . X p.&X&X&X#XQ.Q.Q.P.x . . . . . . . . . . . . . . . . X X f           ",
"        *.X X . . . . . . . . . . . . . . . X X . v +X&X&X&X#XQ.Q.Q.Q.V.X X . . . . . . . . . . . . . . X . . x.        ",
"        X X X X . . . . . . . . . . . . . . X X :  X&X&X&X&X#XQ.Q.Q.Q.W.2.. . . . . . . . . . . . . . . . . . .         ",
"      ^ . . . . . . . . . . . . . . . . . . . X H.&X&X&X&X&X#XQ.Q.Q.Q.Q.Q.T X X X . . . . . . . . . . . . . . . >.      ",
"      X . . . . . . . . . . . . . . . . . . . J &X&X&X&X&X&X#XQ.Q.Q.Q.Q.Q.P.6 X X . . . . . . . . . . . . . . . :       ",
"    %.X . . . . . . . . . . . . . . . . X X s OX&X&X&X&X&X&X@XQ.Q.Q.Q.Q.Q.Q.h.o . . . . . . . . . . . . . . . . X p.    ",
"    o . . . . . . . . . . . . . . . . . X X }.&X  &X&X&X$X'.k k x.Q.Q.Q.Q.Q.Q.%.. . . . . . . . . . . . . . . . X 4     ",
"    X X . . . . . . . . . . . . . . X X . s.      &X&X.X| X X . X ) V.Q.Q.Q.W.W.x X X . . . . . . . . . . . . . X X     ",
"  ^ X X . . . . . . . . . . . . . . X X m       &X+Xs.7 X X m o X X 6 *.W.Q.Q.Q.V.; X X . . . . . . . . . . . . X X >.  ",
"  X X . . . . . . . . . . . . . . . . e         J.6 X X s x.K.G k o . X s u.Q.Q.Q.w.X X . . . . . . . . . . . . X X 4   ",
"  . . . . . . . . . . . . . . . . . . U.    {.J X X o %.W.Q.K.G H B 6 X X X S H.Q.Q.T X . . . . . . . . . . . X X X X   ",
"  X . . . . . . . . . . . . . . X X q.    %.X X X T H.W.Q.Q.K.J G G G B 6 X X o | H.W.6 . . . . . . . . . . . . . . . /.",
">.X . . . . . . . . . . . . . . X k   p.7 X X m x.W.Q.Q.Q.Q.K.J G G G G G k o X X 6 >.m.o . . . . . . . . . . . . . . s.",
"^ X X . . . . . . . . . . . . . X p.u X X 4 q.U.Q.Q.Q.Q.Q.Q.K.J G G G G G G S s X X . v B X . . . . . . . . . . X . X >.",
"m X . . . . . . . . . . . . . . X X X @ %.U.Q.Q.Q.Q.Q.Q.Q.Q.K.J G G G G G G G G B 7 . X X X . . . . . . . . . . X X X ^ ",
"3 . . . . . . . . . . . . . . . X X S H.Q.Q.Q.Q.Q.Q.Q.Q.Q.Q.K.J G G G G G G G G G G m @ X X . . . . . . . . . . . . . e ",
"X . . . . . . . . . . . . . . . @ m.Q.U.Q.Q.Q.Q.Q.Q.Q.Q.Q.Q.K.J G G G G G G G G G G G G v X . . . . . . . . . . . . . X ",
"X X . . . . . . . . . . . . . . X ~.    Q.Q.Q.Q.Q.Q.Q.Q.Q.Q.K.J G G G G G G G G G G *.V.G X . . . . . . . . . . . . X X ",
"@ . . . . . . . . . . . . . X X X e         Q.Q.Q.Q.Q.Q.Q.Q.K.J G G G G G G G G >.K.Q.m.. . . . . . . . . . . . . X X s ",
"k X X X . . . . . . . . . . . . . . s.          ~.Q.Q.Q.Q.Q.K.J G G G G G T t.K.~.U.U.k X . . . . . . . . . . . . . . J ",
"^ X . . . . . . . . . . . . . . . . X               _.Q.Q.U.K.T G G G | x.U.Q.Q.Q.Q.%.X X X . . . . . . . . . . . . X %.",
"3.. . . . . . . . . . . . . . . . . X ^                 _.~.K.G G %.x.Q.Q.Q.Q.Q.Q.H.@ X . . . . . . . . . . . . . X X p.",
"  . . . . . . . . . . . . . . . . . . .                     `.3.H.Q.Q.Q.Q.Q.Q.Q.Q.T X X . . . . . . . . . . . . . X X   ",
"  X . . . . . . . . . . . . . . . . . . 4                     Q.U.~.Q.Q.Q.Q.Q.Q.p.. . . . . . . . . . . . . . . . . X   ",
"  @ X X . . . . . . . . . . . . . . . . X 0.                  Q.Q.Q.Q.Q.Q.Q.Q.U.s . . . . . . . . . . . . . . . . . 3   ",
"  T X X . . . . . . . . . . . . . . . . X X                   Q.Q.Q.Q.Q.Q.Q.Q.... . . . . . . . . . . . . . . . . . %.  ",
"    X X . . . . . . . . . . . . . . . . X X S                 Q.Q.Q.Q.Q.Q.Q.V.o . . . . . . . . . . . . . . . . . .     ",
"    X X . . . . . . . . . . . . . . . . . . X x.              Q.Q.Q.Q.Q.Q.Q.B . . . . . . . . . . . . . . . . . X 6     ",
"    T X . . . . . . . . . . . . . . . . . . X X               Q.Q.Q.Q.Q.Q.u.X . . . . . . . . . . . . . . . . . X >.    ",
"      X . . . . . . . . . . . . . . . . . . . . %.          #XQ.Q.Q.Q.Q.K.6 . . . . . . . . . . . . . . . . . . X       ",
"      J . . . . . . . . . . . . . . . . . . . . X           #XQ.Q.Q.Q.Q.) X . . . . . . . . . . . . . . . . . . >.      ",
"        X X X . . . . . . . . . . . . . . . . . X k       &X#XQ.Q.Q.Q.B.X X . . . . . . . . . . . . . . X X X @         ",
"        ..X X X . . . . . . . . . . . . . . . . X X p.&X&X&X#XQ.Q.Q.W.m . . . . . . . . . . . . . . . . . X X t.        ",
"          3 . . . . . . . . . . . . . . . . . . . X o |.&X&X#XQ.Q.Q.q.X . . . . . . . . . . . . . . . . . . e           ",
"            . . . . . . . . . . . . . . . . . . . X X T &X&X#XQ.Q.V.> X . . . . . . . . . . . . . . . . . X             ",
"            0.X X . . . . . . . . . . . . . . . . . . . /.&X#XQ.Q.T . . . . . . . . . . . . . . . . X X X               ",
"              ^ X X . . . . . . . . . . . . . . . . . . > XX@XW.x.o . . . . . . . . . . . . . . . . X X )               ",
"                v X X X . . . . . . . . . . . . . . . . X 3.@XW.s X X . . . . . . . . . . . . . . . . J                 ",
"                  k X X . . . . . . . . . . . . . . . . X X '.%.X X X X . . . . . . . . . . . . . . S                   ",
"                    B X . . X X . . . . . . . . . . . . X X s o . . . . . . . . . . . . . . X X X *.                    ",
"                        . . . X . . . . . . . . . . . . . X X . . . . . . . . . . . . . . X X X                         ",
"                          o X X . . . . . . . . . . . . . . . . . . . . . . . . . . X X . . s                           ",
"                            ! X . . . . . . . . . . . . . . . . . . . . . . . . . . . X X 0.                            ",
"                                J X X X X . . . . . . . X X . . . . . . X X . . . X o |                                 ",
"                                    | X X X . . . . . . X X . . . . . . X X . . o |                                     ",
"                                          ! X X X X . . X X X X X X . . X ; )                                           ",
"                                                  -.! k : o X : k | 3.                                                  "
};
