/* XPM */
static char *_f4d60ffa2e44d58f891e43fd8457f2eP2faYGvwFnzntF4D[] = {
/* columns rows colors chars-per-pixel */
"172 52 39 1 ",
"  c None",
". c black",
"X c #010101",
"o c #101010",
"O c #111111",
"+ c #202020",
"@ c gray13",
"# c gray19",
"$ c #313131",
"% c gray25",
"& c #414141",
"* c gray31",
"= c #505050",
"- c #5F5F5F",
"; c #606060",
": c gray38",
"> c #6F6F6F",
", c gray44",
"< c #717171",
"1 c gray50",
"2 c #808080",
"3 c #8E8E8E",
"4 c gray56",
"5 c #909090",
"6 c gray62",
"7 c #9F9F9F",
"8 c #A0A0A0",
"9 c #AFAFAF",
"0 c gray69",
"q c gray",
"w c gray75",
"e c #CECECE",
"r c gray81",
"t c gray87",
"y c #DFDFDF",
"u c #EEEEEE",
"i c #EFEFEF",
"p c #FEFEFE",
"a c white",
/* pixels */
"       ..............................................................................................................................................................       ",
"     ..................................................................................................................................................................     ",
"   .....................................................................................................................................................................    ",
"   .......................................................................................................................................................................  ",
"  ........................................................................................................................................................................  ",
" .......................................................................................................................................................................... ",
" .......................................................................................................................................................................... ",
"............................................................................................................................................................................",
"............................................................................................................................................................................",
"............................................................................................................................................................................",
"............................................................................................................................................................................",
".....................................................................................................................................o+.....................................",
"................................................................................................................#w52;=%%++++%;;247wyiai.....................................",
".................................................................................52;%%*-;;22=...#o.....o+%#.....#aaaaaaaaaaaaaaaaaaaaaa.....................................",
"....................................+8aiyyyyyyyyyyyyyyyyy+.....o;www9772777*.....o8aaappppi,....8pptyyiaauo.....oaaaaaaaaaaaaaaaaaaaaaa.....................................",
"......................................;iaaaaaaaaaaaaaaaaa%.......+8aaaaaaa7........aaapppu#.....ouppaaaaaO.......iaaaai2,aaaaa9;>4yaaaao....................................",
".......................................;aaaaaaai5;=%>yaaa%.........;yaaaaa%.......;aaaaay+.......%aaaaaa8........epparo.+aaaaa>....2aaao....................................",
".......................................oaaaaaay+......2aa%..........+iaaaa2......+yaaaaa#.........waaaap%........eppy+..#aaaaa;.....waa.....................................",
"........................................yaaaaa-........5a%...........%aaaai......4aaaaa,..........4aaaapo........wap-...%aaaaa;.....%ai.....................................",
"........................................8aaaai....o....oi+............5aaaa,....%aaaaa2...........>aaaap.........9at....%aaaaa*......iw.....................................",
"........................................5aaaaw....%.....5.............oyaaaio..oyaaaa9............;aaaat.........8a-....%aaaaa$X.....29.....................................",
"........................................2aaaa2...;,.....o..............%aaaa9..4aaaayo............%aapat.........8y.....;aaaaa&X.....%2.....................................",
"........................................,aaaa;...w2.....................5aaaa=%aaaai+.............+apppe.........2-.....;aaaaa&X......%.....................................",
"........................................;aaaa%..+a2.....................oyaaaiyaaaa=..............+apppe.........=o.....;aaaaa%.............................................",
"........................................;aaaa#.o9a2......................%aaaaaaaa2...............+aaaaw.........o......2aaaaa#.............................................",
"........................................,aaaa=5iaa2.......................9aaaaaa7................+aaaaw................2aaaaa+.............................................",
"........................................2aaaaaaaaa2.........o.............oiaaaayo................+aaaaw................2aaaaa+.............................................",
"........................................2aaaaaaaaa2........;..............=aaaaa,.................+aaaaw................8aaaaa+.............................................",
"........................................2aaaa9228a2........y.............+yaaaaaa-................+aaaaw................8aaaaaOX............................................",
"........................................2aaaa%...w2.......1y.............9aaaaaaai#...............+aaaaq................9aaaaaOX............................................",
"........................................2aaaa%...%5......+ar............1aaaaiaaaai#..............@aaaaq................waaaaaXX............................................",
"........................................2aaaa%....;......yaw...........+aaaay+9aaaai#.............Oaaaaq................waaaaa..............................................",
"........................................2aaaa;....o.....1aa0..........oyaaai+.oiaaaai#............%aaaay...............XraaaapOX............................................",
"........................................8aaaa,.........1aaa5..........4aaaa-...=aaaaai#...........%aaaay................uaaaap=X............................................",
"........................................8aaaaw.......o4aaaa,.........;aaaa5.....waaaaaa-..........;aaaaao...............upppaa5.............................................",
"........................................8aaaaa7%#+#;7iaaaaa%........+yaaayo.....+iaaaaaa1o........2aaaaa%..............%ppppaaio............................................",
"........................................waaaaaaaaaaaaaaaaaa#.......+yaaaa7.......2aaaaaaay-.......yaaaaa4..............8aaaaaaa4............................................",
"........................................waaaaaaaaaaaaaaaaaa.......#yaaaaaio......>aaaaaaaaay;....-aaaaaaa%............+aaaaaaaaa1...........................................",
"........................................raaaaaaiyyyrwwwww97......>iaaaaaaaro....#99772>;;;-;;%o..yaaaaaaay+...........,752;;&&$&%...........................................",
"........................................2>;%++..................+;=%%+++........................4iyrw777777.................XXXX............................................",
"............................................................................................................................................................................",
"............................................................................................................................................................................",
"............................................................................................................................................................................",
"............................................................................................................................................................................",
"............................................................................................................................................................................",
" .......................................................................................................................................................................... ",
" .......................................................................................................................................................................... ",
"  ........................................................................................................................................................................  ",
"  ........................................................................................................................................................................  ",
"   ......................................................................................................................................................................   ",
"     ..................................................................................................................................................................     ",
"       ..............................................................................................................................................................       "
};
