/* XPM */
static char *e3ddea7dc3a940c0b629111d66209600O9lwQ3R15IEORgqq[] = {
/* columns rows colors chars-per-pixel */
"54 59 142 2 ",
"   c None",
".  c #281F10",
"X  c #2C2212",
"o  c #2F2618",
"O  c #312614",
"+  c #352916",
"@  c #3B2C16",
"#  c #322718",
"$  c #352A19",
"%  c #3B2E19",
"&  c #3E311B",
"*  c #3D3222",
"=  c #42331D",
"-  c #443721",
";  c #463923",
":  c #483B25",
">  c #403728",
",  c #453B2A",
"<  c #493D29",
"1  c #493F30",
"2  c #4C412E",
"3  c #4D4333",
"4  c #514634",
"5  c #534937",
"6  c #514739",
"7  c #544B3B",
"8  c #594F3E",
"9  c #5A513F",
"0  c #574F40",
"q  c #5C5344",
"w  c #5E5748",
"e  c #5F584A",
"r  c #615746",
"t  c #605847",
"y  c #635B4C",
"u  c #685F4E",
"i  c #665E50",
"p  c #685F50",
"a  c #676052",
"s  c #6B6454",
"d  c #6E6758",
"f  c #6E6859",
"g  c #706655",
"h  c #726B5C",
"j  c #746B5C",
"k  c #736C5C",
"l  c #746C5E",
"z  c #756E5F",
"x  c #766F5F",
"c  c #776F5F",
"v  c #736C5C",
"b  c #766F60",
"n  c #766F60",
"m  c #767060",
"M  c #777061",
"N  c #777262",
"B  c #777061",
"V  c #787161",
"C  c #787162",
"Z  c #797162",
"A  c #797263",
"S  c #7A7262",
"D  c #7A7363",
"F  c #7A7364",
"G  c #7B7464",
"H  c #7C7565",
"J  c #7D7565",
"K  c #7C7566",
"L  c #7D7666",
"P  c #7F7767",
"I  c #7B7464",
"U  c #7F7867",
"Y  c #7F7867",
"T  c #7F7768",
"R  c #7F7868",
"E  c #807867",
"W  c #807868",
"Q  c #807969",
"!  c #817969",
"~  c #817A6A",
"^  c #827B6A",
"/  c #837B6A",
"(  c #837B6B",
")  c #837C6B",
"_  c #847C6C",
"`  c #847D6C",
"'  c #857D6C",
"]  c #857D6D",
"[  c #857F6C",
"{  c #867E6D",
"}  c #867F6E",
"|  c #877F6E",
" . c #857D6C",
".. c #87806F",
"X. c #87806F",
"o. c #88806E",
"O. c #88806F",
"+. c #89806F",
"@. c #88806F",
"#. c #898170",
"$. c #8A8270",
"%. c #8A8271",
"&. c #8A8371",
"*. c #8B8372",
"=. c #8C8473",
"-. c #8D8574",
";. c #8E8674",
":. c #8E8675",
">. c #8F8775",
",. c #8C8472",
"<. c #8F8876",
"1. c #908876",
"2. c #918976",
"3. c #918977",
"4. c #918977",
"5. c #928A78",
"6. c #938B78",
"7. c #938B79",
"8. c #958D7A",
"9. c #958D7B",
"0. c #968E7B",
"q. c #968E7C",
"w. c #978E7C",
"e. c #978F7C",
"r. c #978F7D",
"t. c #948C7A",
"y. c #988F7D",
"u. c #98907D",
"i. c #99907D",
"p. c #98907E",
"a. c #99917E",
"s. c #98917F",
"d. c #99917F",
"f. c #99927F",
"g. c #9A927F",
"h. c #99917E",
"j. c #999180",
"k. c #999380",
"l. c #9A9280",
"z. c #9B9280",
"x. c #9B9280",
"c. c #C4C1BC",
/* pixels */
"                                        g.g.      g.x.r.g.g.=.                                              ",
"                                k.g.r.g.g.<.z g.e.3.#.#.7.g.' m                                             ",
"                              7.-.#.O.#.3.h z 7.#.{ #.3.7.-.W V s { 7.-.-.8.z.                              ",
"                            W O.O.{ O.{ U q l ..{ ..O.{ ..W G f q #.{ { O.#.g.g.y.                          ",
"                      z.g.e.{ z h m A m s , 0 s A W W W L m z y q V { ........] h                           ",
"                    8.z.g.3.{ W q y s i 3 * * 5 5 8 r s h h y 0 8 m V W ' ) ) G i                           ",
"                  O.O.=...{ ..L q & 6 * $ X X . . X X X X X * , * 0 s m m m N N q g                         ",
"                  ' { { U L D k , X . . X . . X . # . . . . . X X $ ; 7 s m f e s 3.g.g.g.                  ",
"          3.r.r.#.j s z V h s 7 O . . . . . . X . o . . . . . . . . . O , 5 8 , k #.7.7.-.                  ",
"          ..{ O.{ L , 3 5 4 , $ . X . X X . . X X o X X X . X . . . . . . X $ $ h G { { O...                ",
"        -.#.{ R A s % o . X . . . X O O X X X . X $ X X O O O X . . . . X . . X 8 s V { O.{ ..              ",
"      r.8.-.U l s 5 # . . . . . . X X X X O O . X # + # @ + O . X . . X O . . X # 6 y z ' { W               ",
"      { | | m y 2 $ . . . X X . . X @ @ X X + O X X % @ @ O @ O X . X . # X . X X X * w m n a               ",
"      y V L h 8 # X X X X X X X X X + @ O O O O X O % @ @ @ @ X O X . O + @ X X X . X * 3 u z m             ",
"      > > 2 6 > X . . X X O O X X # @ @ @ O O O X + @ = = = = X X O X O = @ # X X . X X , { ] A h y         ",
"    L m y : # o X . # + O @ + O X O & @ @ + + # X & = = = = = X O O X X % & @ @ # X . . o f #.*.W z e       ",
"  g.8...N a 7 $ . . @ + + @ + + O $ & = @ @ @ # O & = ; = ; & O @ O . . = = = @ = O . . . * R r...W d       ",
"  3.<.7.<.H e * . X & & + @ + @ # O & = = @ + @ # # : ; & ; % @ @ O O . = - = @ @ @ X . . . y ..3.] f 7     ",
"  O...{ ..) f * . @ = = = = @ @ # + = = = & @ @ $ # = : = = = @ O @ O . @ - - = = @ O O . X 8 W 7.L s 5     ",
"  { ..{ m f e % . O = = = = = @ O + = ; = @ = = O # ; ; & ; = @ @ = O O @ = ; = % @ X O X . 6 { O.m s 4     ",
"  { { { N k u & . O = = = : = + O O & ; = % ; @ + O = = * ; = % @ + O X = - = % = @ O O X . 3 W ' m i 2     ",
"  V V ' ) D a $ . + : = : = = O O X & = = @ = @ + + = = ; ; = = @ @ O . % = - = = @ + + X . 1 W V z 0 <     ",
"  s q y u y 2 O . + 2 = = = = O X O @ ; ; @ ; % O O = : ; = = + = @ O . @ = = % = = @ O O . > V s q 4 <     ",
"g.=.z q 8 5 & X . @ : = = = = X X $ & = & & = % O O = = : = = @ + @ @ X @ - % % = = @ + O . $ I I s r 0     ",
"O.8.g.=.h i 4 o X + ; = = = = O X O = ; = = = @ X $ = ; ; = @ @ + @ O . % = = - = & @ @ O . 3 ,.8.>.n y     ",
"| | =.O.m u 7 o X @ 2 = & & = O O X = = : = = + X $ = = ; = @ @ @ @ + O = : = ; = = @ @ O . q | I z V u 1   ",
"| O.| W m h 8 X O & : 2 = & = + X O = = = = % + X $ = ; = = ; @ % @ $ X @ - = < = = @ @ . X u ,.8.>./ s     ",
"{ #.7.3.] G < X + = = = = = & O X # = : = = @ X O $ = ; = = = & % @ @ X = ; = : = = @ @ O X s 3.6.| / s     ",
"  X.+.&...G & o O = = : = = = X X $ = ; = = & @ O O = ; : ; - = = % O O = : = < = & = @ O X g >.=.{ n h q   ",
"  u q w h 7 X X + = = : = = = O X + = ; ; = = @ X + = : = : = = = @ + O = : = = = % % % + X f =.| L n h 7   ",
"  s q : $ o o X O % = = = = % O X @ = : @ & % @ X X - ; ; = - = = @ O O = : - = = % + @ O X s { | L h q 2   ",
"  z y 3 2 * o X X = 2 = = : @ O X & = ; ; = % % . # ; ; - - - : = + @ o & ; - = - ; % + @ X y { { n w 4 <   ",
"  W l y y i 3 $ o % ; = = = & + . = = : = = & + . + = = = 2 = 2 = & @ X = : = = = = & @ @ X 9 Y A s 3 : <   ",
"    ( m m d q % O & ; = = = + + . @ = = 2 = & + . + = = = = = = = & + O = = 2 = = = & @ @ X , k s q q q     ",
"  #.{ { D y q * $ - = % = = @ X X & 2 = = = = O . + = : = = = = = @ O X = = = = = = = + @ # X r z h y w q   ",
"  } } { L y q * % = = & @ + O . X = = = = 2 = @ . + = 2 = = = = O & O X = : 2 = = 2 = & @ o X 8 ..{ T d q   ",
"  { O.{ V y 0 $ & : = = = + O X X & = = : = = + . + = 2 = = = & @ @ O X = = = = = 2 = % @ X O q | | | { g < ",
"  #.{ O.W i 0 & & = : = = @ O X O & = = = ; = + . + = = = = @ O @ @ O . = = = = ; = = % @ X O 8 | | | { V < ",
"  -.O.{ { h 4 $ - ; = = = @ X X O = ; = = 2 = + . + = 2 = = = + @ + X . = = = = @ ; ; & @ O X 5 | | | E n 4 ",
"  T W ) h w 3 + & : : @ = @ O X O = ; & = = = + . & = = 2 = = @ = O X . = = = & + ; = & @ $ X 6 W | ,.' z 4 ",
"  ..-...m f 6 # - ; ; = = @ # . O = = = = : & O X @ & ; = & = = @ + X . = = = = @ = ; = % O X 2 L 3.3./ h < ",
"  #.-.G m a 3 $ = 2 = = = @ + X O = : ; = = = O X & & : = @ ; = @ O X . = 2 = = & = : = % O . * s V j y 4   ",
"  m m s s q $ $ & ; = : = @ @ X @ = : = = = = O . & @ = = & = = @ + O X = = = = & = : = & X X * E 8.r.{ / c ",
"  G l s s q * % = : = : = @ @ X @ = : = = = = X X ; @ + & & = = + @ O X = : = 2 & & ; & + X o * { z.8.W s q ",
"e.) L R V l 3 & = ; = = = @ O . % = = 2 = & & X X = @ & % = = = + @ O . = = = 2 & & = = @ X X 3 | 7.W m y 3 ",
"7...=.3.L h , % : 2 = ; = @ O . % = : : = = & O X & @ & = = = = + @ O . = = = = & = = = @ X . 6 W { { L a 3 ",
"6.O.J g l f : + = : = : ; @ O . % = : = ; 2 = + o + @ & = = : % @ @ + X & = = = = % & % + X . 3 W =.-.W f 7 ",
"g.8.O.' V s & @ = ; = : = % O X % = = : ; ; = + $ O @ @ = = = = & @ + X & = & : = = = & @ X X * L =.8.#.L 7 ",
"3.h s r 7 , o + = ; = : @ @ O . = = = ; ; ; = + # X @ @ = = : = & @ + X @ @ & = = = = @ @ + X X l U ..{ V 6 ",
") z a y < $ . O & ; = : @ + O X = = = = ; = = + # # & @ % = : : & @ + X @ & = = = & = @ @ @ X $ s y 7 3 2 , ",
"g.g...z y > X $ & : = ; % @ X + = = = % ; ; & $ O O + @ @ = = = & + O X + @ = = = + @ @ O + O # d R e.&.V q ",
"=.) V V m 8 O @ = : = & + @ X X = = % % : = $ @ O O O = @ % = = & O O . X @ & = = $ + @ + X # & s W 8.#.{ s ",
"{ O...{ L q X % = : ; & @ O O X = ; & @ = : + + X O X @ @ $ = - @ O X . X O & & = $ X @ o X O $ u ] #.{ R s ",
"O.#.7.-.z 8 o & = ; ; = + X O X ; : @ + = = + + $ O O + X O = = + X . . . X + @ % + X O X X X X u W ] L A s ",
"{ 8.=.L s q X % & - $ O X O O O & = @ + = + @ + o $ O X O X % % + O X X X X X + @ # X O X X $ X 9 m { { W w ",
"{ { ] m e 3 X % u 5 * * & > , 1 2 3 > $ & % & > 2 u g y 7 > * : * & * 2 9 , @ @ * & $ $ - 2 s 7 2 l m G s 5 ",
"W s V l q > * d z m K G A A m A J V D V m z z z z h m V L G L T H Y Y U R R D s u u y y z k k l 8 3 e e 7   ",
"  6 e 5 6 f q i A a A e n         u q q w q w w w e w q q w q e e e w w q e e e y w y y q q q e 5   >     c.",
"                                                                                                            "
};
