/* XPM */
static char *_08a8df6badc4e7d8212c78b9c42c757P4jiXuEIBVY3AGGd[] = {
/* columns rows colors chars-per-pixel */
"60 60 155 2 ",
"   c None",
".  c #1D1D1D",
"X  c #202020",
"o  c #222222",
"O  c #232323",
"+  c gray14",
"@  c #252525",
"#  c gray15",
"$  c #2D2D2D",
"%  c gray18",
"&  c #2F2F2F",
"*  c #313131",
"=  c #323232",
"-  c gray20",
";  c #353535",
":  c gray21",
">  c #373737",
",  c #393939",
"<  c #3A3A3A",
"1  c gray23",
"2  c #3C3C3C",
"3  c gray24",
"4  c #3F3F3F",
"5  c gray25",
"6  c #414141",
"7  c gray26",
"8  c #434343",
"9  c #444444",
"0  c gray27",
"q  c #464646",
"w  c gray28",
"e  c #484848",
"r  c gray29",
"t  c #4B4B4B",
"y  c #4C4C4C",
"u  c gray30",
"i  c #4E4E4E",
"p  c gray31",
"a  c #505050",
"s  c #515151",
"d  c gray32",
"f  c #535353",
"g  c gray33",
"h  c #555555",
"j  c #565656",
"k  c gray34",
"l  c #585858",
"z  c gray35",
"x  c #5A5A5A",
"c  c #5B5B5B",
"v  c gray36",
"b  c #5D5D5D",
"n  c gray37",
"m  c #5F5F5F",
"M  c #606060",
"N  c gray38",
"B  c #626262",
"V  c gray39",
"C  c #646464",
"Z  c #656565",
"A  c gray40",
"S  c #676767",
"D  c #686868",
"F  c DimGray",
"G  c #6A6A6A",
"H  c gray42",
"J  c #6C6C6C",
"K  c #6D6D6D",
"L  c gray43",
"P  c #6F6F6F",
"I  c gray44",
"U  c #717171",
"Y  c #727272",
"T  c gray45",
"R  c #747474",
"E  c gray46",
"W  c #767676",
"Q  c #777777",
"!  c gray47",
"~  c #797979",
"^  c gray48",
"/  c #7B7B7B",
"(  c #7C7C7C",
")  c gray49",
"_  c #7E7E7E",
"`  c gray50",
"'  c #808080",
"]  c #818181",
"[  c gray51",
"{  c #838383",
"}  c #848484",
"|  c gray52",
" . c #868686",
".. c gray53",
"X. c #888888",
"o. c #898989",
"O. c gray54",
"+. c #8B8B8B",
"@. c gray55",
"#. c #8D8D8D",
"$. c #8E8E8E",
"%. c gray56",
"&. c #909090",
"*. c gray57",
"=. c #929292",
"-. c #939393",
";. c gray58",
":. c #959595",
">. c gray59",
",. c #979797",
"<. c #989898",
"1. c gray60",
"2. c #9A9A9A",
"3. c #9B9B9B",
"4. c gray61",
"5. c #9D9D9D",
"6. c gray62",
"7. c #9F9F9F",
"8. c #A0A0A0",
"9. c gray63",
"0. c #A2A2A2",
"q. c gray64",
"w. c #A4A4A4",
"e. c #A5A5A5",
"r. c gray65",
"t. c #A7A7A7",
"y. c gray66",
"u. c #A9A9A9",
"i. c #AAAAAA",
"p. c gray67",
"a. c #ACACAC",
"s. c gray68",
"d. c #AEAEAE",
"f. c #AFAFAF",
"g. c gray69",
"h. c #B1B1B1",
"j. c #B2B2B2",
"k. c gray70",
"l. c #B4B4B4",
"z. c gray71",
"x. c #B6B6B6",
"c. c #B7B7B7",
"v. c gray72",
"b. c #B9B9B9",
"n. c gray73",
"m. c #BBBBBB",
"M. c #BCBCBC",
"N. c gray74",
"B. c gray",
"V. c gray75",
"C. c #C0C0C0",
"Z. c #C1C1C1",
"A. c #C5C5C5",
"S. c #C6C6C6",
"D. c gray78",
/* pixels */
"                                                                                                                        ",
"                                                      :.s.g.g.s.s.y.                                                    ",
"                                                      9.D.D.D.D.D.M.                                                    ",
"                                                      2.C.C.M.M.C.M.                                                    ",
"                                                      -.x.M.b.b.b.x.                                                    ",
"                                                o.s.y.-.b.M.b.x.b.6.-.y.6.                                              ",
"                                                o.b.g.%.x.b.x.x.M.-.:.x.y.                                              ",
"                                              2...x.s...t.b.x.x.M._ -.s.:.-.                                            ",
"                                          s.x.s...t.s.%.:.M.x.x.g.E :.s._ 9.x.g.y.                                      ",
"                                      t.x.x.g.t...-.s.2.] t.s.s.-.~ 2.2.~ 2.y.g.b.g.                                    ",
"                                    y.b.g.s.t.t.%._ g.t.o.E Y Y ~ %.9.2.E 2.t.t.s.g.x.t.                                ",
"                                t.x.s.s.y.t.t.t.-.E s.s.t.2.-.-.2.6.y...] 2.9.t.t.s.g.x.g.                              ",
"                              y.x.g.s.y.t.t.9.9.2.~ 2.s.y.t.t.9.t.t.t.L %.6.9.t.t.t.y.s.x.x.y.                          ",
"                      :.t.o.2.g.s.y.t.t.9.t.9.t.9.o.Y 2.s.s.s.s.y.s.o.Y 2.t.9.9.9.t.t.y.s.s.g.%.6.t.                    ",
"                      y.C.g...o.t.9.9.t.9.9.t.6.S : < S E _ _ ~ _ Y s X 7 _ 2.t.t.t.9.t.t.6...9.b.b.9.                  ",
"                    2.b.b.M.s._ o.6.9.6.9.9...7 X w w 7 2 < @ - < 2 w 7 @ @ g -.t.2.6.9.:.E 6.b.b.b.x.                  ",
"                    s.b.x.x.x.t..._ 6.9.6.m % m r ~ _ L S L < S L L ~ ~ i S % 2 ] 6.t.%.E 9.x.g.g.x.M.t.                ",
"                  6.M.b.g.g.s.x.t..._ ~ 2 2 m ] g _ %._ ~ ..w ~ .._ o...g o.L r % M -.] t.x.g.s.s.g.x.b.                ",
"                  g.b.g.s.s.s.s.g.s._ . 7 L Y o.g ] %..._ o.r ] ..~ o...g %.] ~ z . z 6.x.s.s.s.s.s.g.C.s.              ",
"                9.M.x.g.s.s.s.y.s.s...% S _ ] %.m ..o.] _ %.i ] %.] ..o.z -.o.o._ - S 6.g.s.s.y.y.s.s.b.M.              ",
"              o.x.b.x.g.s.y.y.y.s.t.M : Y _ ] -.m o...] ..%.r ..%...o.%.g -...%.o.w s o.x.s.s.s.s.s.s.x.b.y.            ",
"              ] :.g.x.g.g.y.s.y.s.] 7 7 ~ ] o.%.m %.] _ -.-.i ] -.~ %.o.z %._ -.-.w M M 6.s.s.s.s.s.g.s.s.2.            ",
"                  _ _ o.6.y.y.s.:.r z r _ E ] %.M %..._ %.-.s ..%.~ -.%.m :.] -.%.s E s E s.s.g.y.2.] Y Y               ",
"                  y.%.Y L E ] o.S w L s _ o.%.-.M o.o._ ] :.s ..-.E %.%.m :._ -.-.s ] M i ~ ] ~ S M L -.:.              ",
"                %.g.6.2.-..._ r - M _ z ..o.o.:.M %...] %.:.s o.:.E %.%.m :.] %.-.g ] L w - E ~ o.:.2.t.t.              ",
"                2.s.6.9.6.2.2.s i E ] z o...o.2.M %._ _ %.-.s ..:.~ -.-.m o.~ -.o.g ....S - %.6.6.6.2.t.t.              ",
"                9.y.9.9.6.9.9.i z _ ..g o.o.o.2.M o.] _ %.-.s o.:...-.:.m -...%.o.g o...E - ..t.6.6.6.9.9.              ",
"                y.9.t.9.9.9.2.2 L ] o.z o.%.o.6.S %.%...o.:.s o.2.o.-.:.m :.o.o.%.z %.%.~ < E t.6.6.2.9.s.6.            ",
"                y.t.t.6.9.9.o.< L ] _ m ..-.o.2.M %.%.....:.s o.:.o.:.:.m :.-...:.z %.%.~ g G 6.6.6.6.6.s.9.            ",
"                s.t.6.6.6.9.~ w Y ..] z ] -...2.M %.o.] ~ -.g %.%.%.:.:.m -.-.o.:.z %.-.~ S G 2.6.2.2.6.t.t.            ",
"                6.2.-.-.-.2.Y w L ....z ] -...6.M o...~ ~ -.s o.%.%.-.-.M -.-.o.2.z %.%.] Y   o.%...o.-.2.-.            ",
"              :.%..._ _ ~ ~ S M Y ~ ] z ] ] ..:.M ..%.E ~ 2.s ] %.%.-.-.z o.o.] -.z o..._ G M E ~ Y ~ ~ ..%.6.          ",
"            6.b.b.b.x.y.s.g.:.S ..2...S ~ ] _ %.M ] ] E _ -.m _ ....o..._ o.-.2.%.M o._ ~ z _ s.x.g.g.x.x.x.b.          ",
"            t.M.x.g.g.s.y.g.9.z Y o.2.6.:.6.6.2.2.2.:.%.-.6.9.9.6.6.9.9.9.9.9.6.6.9.o._ Y s ~ g.s.y.y.y.s.g.M.          ",
"            y.b.g.g.s.y.y.y.t.s S ..%.:.2.:.6.6.6.6.:.o.-.9.t.t.9.6.6.2.2.:.o.%.2.9.9.:.L i ~ s.y.y.y.y.s.g.C.9.        ",
"            y.b.g.g.s.y.s.s.t.s S ~ %.-.2.:.:.2.:.:.-.] %.:.2.9.9.2.:.2.:.-.o...-.:...Y G r ] g.y.y.y.y.s.g.M.          ",
"            9.b.x.x.s.s.y.s.-.z Y o.] L E L Y _ M E L S L E M ~ E ~ _ ~ ~ ] ..o.] m ~ ~ Y i ~ t.y.s.s.s.g.x.b.          ",
"            _ -.%...] ] ] ] L g S L _ z o.E ..:.M o._ ..~ :.i ....%...] z ~ M S G w ] _ E m S _ ] ] ] ..o.-.:.          ",
"                _ ] ~ E Y Y m 2 M _ %.m %...o.:.M %.] %.~ 2.s o.-.o.] o.m %.S M E S Y L Y S i Y E L G G E E             ",
"                y.t.9.6.6.t.Y w Y ..%.M %.-.%.-.S -.o.%.~ 6.s %.o.%...o.M %.m ..g.x.E M L G i t.9.9.6.:.y.s.            ",
"                6.y.t.9.9.t.Y r Y _ -.M :.%.-.:.M %.-.-.] 2.s -.-.%.-.-.M ] ] %.s.g.:.L S S s y.9.9.2.:.t.g.            ",
"                s.9.9.9.9.t.E s ~ ] %.M -.o.:.:.S -.%.%...9.i %.%.o.6.-.m _ 6.m M m E o.z G s y.t.2.9.6.s.g.            ",
"                g.s.t.t.t.y.E s _ ..-.M -.o.%.2.S -.%...] 9.i %.%...2.:.z ~ 2.g % @ _ %.M S s t.6.9.9.9.s.y.            ",
"                -.:.:.-.%.o.L z ] o.-.M -.%.-.2.S %.%...] 6.i %.%.o.:.:.m ] ~ 6.~ _ 9.Y L L r ~ %.:.:...-...            ",
"                ] ] ~ Y _ _   z _ o.-.M -.] -.2.S o.%.] ..6.i o.:.-.:.-.m ..Y ~ :.o.~ Y ~ ~ i Y _ ~ E E E ~             ",
"                s.g.y.2.t.y.] G Y _ %.M -...o.:.M ..%.] ] 2.i %.:.:.-.%.m %.] L ~ w _ ] _ _ Y 6.y.t.t.y.s.6.            ",
"                g.s.t.9.:.y..._ -.-.o.S _ ] ..-.m ..%.~ ] -.s o.%.%.....L ..o.o...s ....~ ~ Y y.t.9.9.9.s.9.            ",
"                s.y.t.9.9.6._ E -.6.6.:.-.:.-.-.%.-.%.%.%.:.-.2.-.:.:.2.9.9.9.t.2.:...] _ ~ Y 9.9.9.6.9.s.9.            ",
"                y.y.t.9.6.t.~ Y o.-.2.2.9.6.9.t.t.9.9.t.t.t.y.y.:.-.-.6.6.9.:.-.9.t.9.%.~ ~ E 6.9.6.6.6.t.6.            ",
"                y.t.9.6.6.t.~ L _ ..:.:.2.2.2.6.6.6.6.6.9.9.9.t.2._ %.2.2.:.o.o.:.9.2...~ ~ Y 6.9.6.6.6.t.2.            ",
"                t.t.6.6.6.9.E L ] o.%....._ _ ..~ _ ~ Y ~ _ E _ _ ] ....%.-.:.:.:.] _ ] ] ~ L 6.9.6.2.6.9.2.            ",
"              L ~ %.%.o.o...g S _ ~ E z ] ..o.%.M ] %.E ..2.i _ ..] o._ z ~ E ] _ g o...o.E   E %.o.o.o...G             ",
"            :.t.6.2.2.2.:.6...r z E o.M -.-.%.2.S ..%._ %.2.i %.%.-.2.o.M -._ %.-.z -...] S ~ 2.2.%.%.-.:.9.9.          ",
"            t.M.b.b.x.g.s.x.9.i M ..-.S %.:.-.2.S %.:._ o.t.s o.-.:.2.%.S -...2.:.m 2...] g ..g.s.t.g.x.g.x.b.          ",
"            t.b.x.s.s.s.s.g.s.s G ..:.S %.-...2.S -.%.o._ 9.g -.%.:.2.:.S -.-.:.6.m 6.%._ s ] y.6.s.s.y.s.g.b.          ",
"            y.b.g.g.s.s.s.g.s.s S o.2.S -.:.-.2.G -.%.o...6.s -.%.:.6.2.M -.:.2.9.M 2.-.o.z Y y.9.s.s.s.s.x.b.          ",
"            y.M.x.x.g.g.g.x.s.M Y -.6.G 2.9.2.9.L :.-.%.o.6.g :.:.6.9.2.S 2.%.9.t.M 9.6.%.M ..x.g.g.g.g.g.x.b.          ",
"            t.M.b.b.x.b.b.M.y._ %.2.y.L 6.t.y.t.E 2.-.-.2.9.z %.t.s.t.9.G t.2.9.t.L 9.t.6._ ..b.b.b.b.b.b.b.M.          ",
"            ..9.s.s.y.y.y.y.-.  2.6.t.    t.y.2.  ..-.o.:.:.    9.6.:.    :.%.%.:.  :.t.9.  ..2.s.s.s.y.s.s.9.          ",
"                                                                                                                        "
};
