/* XPM */
static char *_554f8a3ea194eccedaf324fc32c90c0nbacZ4bhSv48wXEx[] = {
/* columns rows colors chars-per-pixel */
"52 52 27 1 ",
"  c None",
". c black",
"X c #040901",
"o c #040A01",
"O c #040B01",
"+ c #091203",
"@ c #081303",
"# c #0D1C04",
"$ c #0C1C05",
"% c #112507",
"& c #152F08",
"* c #19380A",
"= c #1D420B",
"- c #1D410C",
"; c #1E420C",
": c #214B0D",
"> c #224B0E",
", c #26540F",
"< c #2A5E11",
"1 c #2E6713",
"2 c #327014",
"3 c #367A16",
"4 c #377A16",
"5 c #3A8317",
"6 c #3B8318",
"7 c #3E8C19",
"8 c #43961B",
/* pixels */
"                                                    ",
"                                                    ",
"                                                    ",
"                                                    ",
"                                                    ",
"                                                    ",
"                                                    ",
"                                                    ",
"                                                    ",
"                  ...                               ",
"                  .==.                              ",
"                  .:84+.                            ",
"                  .:888:.                           ",
"                  .:88886+.                         ",
"                  .:888888:.                        ",
"                  .:88888886+.                      ",
"                  .:888888888:.                     ",
"                  .:88888888886#.                   ",
"                  .:888888888888,O                  ",
"                  .:88888888888886&.                ",
"                  .:888888888888888<+               ",
"                  .:88888888888888886*.             ",
"                  .:888888888888888888<+            ",
"                  .:88888888888888888886*.          ",
"                  .:888888888888888888888<@.        ",
"                  .:88888888888888888888886*.       ",
"                  .:88888888888888888888887-.       ",
"                  .:8888888888888888888882@.        ",
"                  .:88888888888888888887&.          ",
"                  .:8888888888888888881O.           ",
"                  .:88888888888888885%.             ",
"                  .:888888888888888,O.              ",
"                  .>88888888888885%.                ",
"                  .>888888888888,O                  ",
"                  X;88888888885%.                   ",
"                  .>888888888,O                     ",
"                  .>88888884%.                      ",
"                  .>888888>.                        ",
"                  .>88882#.                         ",
"                  .>887-.                           ",
"                  .:82@.                            ",
"                  .--.                              ",
"                  ...                               ",
"                                                    ",
"                                                    ",
"                                                    ",
"                                                    ",
"                                                    ",
"                                                    ",
"                                                    ",
"                                                    ",
"                                                    "
};
