/* XPM */
static char *e8df8bc5a39b4a72acf40d030d6d462e7NtYrNtE6EfxLin1[] = {
/* columns rows colors chars-per-pixel */
"60 60 155 2 ",
"   c #34816B",
".  c #3F8975",
"X  c #428773",
"o  c #448C75",
"O  c #4A8E7A",
"+  c #558F7D",
"@  c #4D947E",
"#  c #50977E",
"$  c #4E9481",
"%  c #539581",
"&  c #589482",
"*  c #539883",
"=  c #5C9886",
"-  c #5C9D8B",
";  c #619789",
":  c #639D8D",
">  c #5DA08D",
",  c #5DA693",
"<  c #66A38F",
"1  c #64A591",
"2  c #6BA494",
"3  c #65AA96",
"4  c #69A994",
"5  c #67A799",
"6  c #6DAD9B",
"7  c #72A496",
"8  c #71A698",
"9  c #79A79B",
"0  c #74AC9C",
"q  c #7BAC9E",
"w  c #73B29E",
"e  c #76AFA0",
"r  c #7CADA1",
"t  c #75B4A3",
"y  c #7BB4A4",
"u  c #76B9A5",
"i  c #7DBAA6",
"p  c #7EBBAA",
"a  c #81AD9F",
"s  c #83ADA3",
"d  c #84B2A5",
"f  c #8AB1A6",
"g  c #83BAA7",
"h  c #84B6A9",
"j  c #8BB5AA",
"k  c #83BBAB",
"l  c #8ABCAE",
"z  c #90B5AD",
"x  c #93B9AF",
"c  c #82BEB0",
"v  c #8CBDB1",
"b  c #93BCB2",
"n  c #9ABCB4",
"m  c #85C1AE",
"M  c #89C2AF",
"N  c #86C2B2",
"B  c #8CC3B3",
"V  c #8BC8B5",
"C  c #8DC5B9",
"Z  c #8ECAB9",
"A  c #94C4B5",
"S  c #9AC5B7",
"D  c #96C6B9",
"F  c #9CC5BA",
"G  c #94CABB",
"H  c #9CCBBD",
"J  c #94D0BE",
"K  c #9CD0BF",
"L  c #A2C6BD",
"P  c #A2CABE",
"I  c #95CFC0",
"U  c #9DCEC1",
"Y  c #95D3C2",
"T  c #9DD2C3",
"R  c #99DAC6",
"E  c #A4CDC2",
"W  c #ABCDC4",
"Q  c #AFCFC8",
"!  c #B1CFC7",
"~  c #B2CFC9",
"^  c #A4D1C5",
"/  c #AAD1C6",
"(  c #A5D5C8",
")  c #ACD4CA",
"_  c #A5DBCC",
"`  c #ACDACE",
"'  c #B1D1C7",
"]  c #B2D4CB",
"[  c #B8D7CF",
"{  c #B1D8CE",
"}  c #A6DED0",
"|  c #AEDCD1",
" . c #B5D7D0",
".. c #B8D7D0",
"X. c #B4DCD2",
"o. c #B9DCD4",
"O. c #A6E0CE",
"+. c #AAE1CF",
"@. c #ACE2D2",
"#. c #B4E3D6",
"$. c #B9E1D7",
"%. c #B7E8D7",
"&. c #B6E6D8",
"*. c #BCE5DB",
"=. c #B7E8DA",
"-. c #BCEADD",
";. c #BFECE0",
":. c #C3E4DC",
">. c #CAE7DF",
",. c #C1EBDF",
"<. c #C8E7E1",
"1. c #C4EEE2",
"2. c #C8EFE5",
"3. c #CAEEE4",
"4. c #CFEDE6",
"5. c #CFEEE8",
"6. c #D4EEE9",
"7. c #C7F0E4",
"8. c #C9F0E4",
"9. c #CBF0E5",
"0. c #CAF0E6",
"q. c #CBF1E7",
"w. c #CDF1E7",
"e. c #CFF1E7",
"r. c #CBF1E8",
"t. c #CEF1E9",
"y. c #CDF2E9",
"u. c #CEF2E9",
"i. c #D0F1E7",
"p. c #D1F3E9",
"a. c #D4F3EB",
"s. c #D4F4EB",
"d. c #D5F3EC",
"f. c #D2F4EC",
"g. c #D3F4EC",
"h. c #D7F4EC",
"j. c #D9F3ED",
"k. c #D9F5ED",
"l. c #D9F5EE",
"z. c #D9F6EE",
"x. c #DBF7EF",
"c. c #DCF7EF",
"v. c #D7F5F0",
"b. c #DBF7F0",
"n. c #DCF7F0",
"m. c #DEF7F1",
"M. c #DEF8F1",
"N. c #DFF9F3",
"B. c #E0F7F2",
"V. c #E1F9F3",
"C. c #E2F9F3",
"Z. c #E3F9F4",
"A. c #E5FAF5",
"S. c #E8FBF7",
"D. c #EAFCF8",
/* pixels */
"9 E W ) ] W ) E H d s P W 2 L ^ E E H q r / E r W E / P F 9 s P ) / P ] P W H d 9 H A A H F W W U q s L E r W Q W W E s ",
"P M.b.b.V.n.5.1.r.G P -.2.} q.1.2.1.;.A W -.-.^ p.2.e.-.%.M L l.l.e.s.i.1.-.-.A A +.@.-.-.1.1.1.;.C E q.;.| f.t.l.t.q.H ",
"F l.l.l.l.l.t.2.1.T F 5.-.^ t.r.1.1.1.I j -.-._ d.q.p.p.%.M P l.e.7.1.1.%.O.-.G g %.%.%.-.q.1.1.1.T W 1.1.r.H v.l.f.t.U ",
"' t.s.c.n.h.q.1.1.H F -.U h.p.r.q.1.5.E b A ^ l d.e.2.h.p.H ! h.s.s.-.#.,.R %.A A +.=.,.q.q.7.q.q.E E b.b.V.5.v 6.l.V.W ",
"X.1.p.2.t.-.-.a.t.U t ^ l.d.l.j.r.;.r./ *.n.l.N _ J ,.p.p.H P e.1.%.-._ @.-.,.H T +.9.7.l.s.1.1.f./ W M.V.V.A.I e 1.B.) ",
"W p.2.-.p.A ^ 2._ G A n.d.n.p.d.t.1.h.) ] h.-.T l h.l.e.1.T W i.%.+.e.+.#.e.2.^ W q.,.p.x.s.e.7.f.E ] V.n.b.d.H M.*.X.2 ",
"2 ( @.#.Y e ( - 4.E W n.d.d.b.l.b.r.v.( ' b.,.*.* / -.7.%.A L ,.,.+.,.e.1.,.i.A D s.7.,.l.x.l.7.l.D ~ V.b.v.p.| h.f.l.g ",
"C 7.t.*.2.I G 4.h.^ ' V.n.b.v.b.b.t.h.E ) d.,.p.%.A ,.-.-.B 7 #.7.,.1.s.i.9.3.M P x.l.q.s.s.s.q.` 5 W h.b.S.n.Q l.h.f.G ",
"L e.q.#.Y n.( B.V.` ] A.A.b.t.p.M.f.p.A W b.p.h.p.Z a.q.s.Z / J $._ -.e.x.i.l.N P l.l.4.t.1.p.( *.{ ] S.S.S.V.) M.V.v.D ",
"q G V # l ( C ` ` 5 v E E / Y U E ^ ^ - d ( ` H M M d ` ^ @ g g - M V G E B l * q E T G C G U u ( w l E E ) G 0 ) ) H % ",
"f W W ` ] ] v  ./ s b 4.y W ` ) X.*.) d j W P ] ' W t W W q @ , T P / / $.` ] q f ! H k / E ] ) W d z 1. . . . .*.*.` s ",
"P s.q.l.M.V.p.U c.E ] l.R n.5.t.f.v.d.H F 2.2.h.V.V.,.Z s.A 9 j %.,.2.V.l.s.V.E W c.2.>.2.2.p.p.f.D / 2.f.n.A.A.v.h.h.E ",
"F q.t.l.M.A.S.n.( b ] q.D h.h.b.V.M.b.E F M.d.p.V.n.M.&.T f 6 *.-.,.-.V.S.A.A.E F c.e._ t.f.b.l.j.A ` l.l.l.A.A.V.n.n.P ",
"/ s.h.l.V.V.S.A.b.1 t 3 l.h.f.b.V.V.M.W ' l.j.b.V.V.V.h.` # { a.,.-.e.b.A.S.S./ ' V.l.G b.h.A.n.n.S  .n.M.n.n.V.S.A.V.W ",
"W n.s.V.V.V.S.V.M.B r l.f.b.M.V.V.V.V.( ) h.2.b.M.M.M.V.V.A [ p.q.p.M.V.V.V.V./ ] x.s._ ^ V.V.M.V.A  .f.2.n.M.V.V.n.B./ ",
"] c.l.n.V.b.A.V.V.( ( e.t.r.n.A.A.M.A.] ) 1.2.t.h.f.s.e.s.` X.a.l.b.A.l.M.M.V./ E s.t.0 0 V.V.h.-., X.&.;.2.f.p.f.1.d.E ",
"E c.V.A.A.M.M.b.h.U *.p.2.f.t.b.A.V.V.P / t.t.d.b.t.p.1.t.E 1.n.V.A.S.V.S.n.M.H k p.t.,.c H ) <.#.F %.t.q.h.b.t.t.@.l.E ",
"W V.S.S.A.s.2.1.e.D M.n.1.2.h.N.V.V.n.E W b.b.b.b.t.-.1.h.E V.V.S.S.S.V.V.f.l.B n b.t.t.` t.t.l.b.W X.A.h.b.h.h.t.1.e.E ",
"o.S.S.A.A.n.l.O.O.H $.B.b.l.h.2.h.h.n.k X.n.M.h.s.d.l.d.t.E :.A.S.A.S.S.V.q.2.p  .l.b.h._ 1.4.1.b.( ( | >.f.q.p.b.l.2.v ",
"d U P A / H m w p > D ( E U G p H G h . d H F B H ( G F D * F ` E (  .E E N t . q E P k 2 m i y A 2 A ( > H m D ( / v   ",
"r ~ ~ Q ` W W W / s s E Q W E / E W ) d s ) W E ) P W H W s s W ] e .. .W ' W d q / E W ( W U E L s s ! [ P W / W E Q j ",
"E 2.2.;.f.N.M.l.p./ W p.2.b.4.2.2.r.q.G ~ n.b.t.2.t.b.q.b.( W 2.t.o.n.n.V.V.V.P W 2.1.p.4.2.1.-.=.U W n.v.r.1.6.h.r.b./ ",
"S 2.2.O.#.t.M.M.V. .W p.t.f.q.t.f.t.r.^ L n.n.t.2.2.b.t.l.( L 5.l.2.G b.l.n.V.( P e.-.,.-.h.v.t.2.` W A.M.t.1.h.n.t.h.( ",
") -.2.;.O._ M.M.A.E F h.b.b.b.f.2.q.q.H ~ d.V.2.Y l.b.1.h./ ! f.t.2.*.g d.M.n./ / ,.e.p.,._ 7.7.e.U b l.V.v.t.n.l.X.#.G ",
"o.2.t.1.O.-.s.l.V./ h :.V.V.V.M.v.f.r.E $.b.b.t.t.r.2.2.b.( W l.h.f.1.N e <.B.E *.t.h.h.h.5.2.2.e.E 2 ) | *.X.5._ V.n.- ",
"Q 2.t.2.-.1.c.V.V.` W n.M.V.V.V.h.h.b.( ! n.l.n.b.r.t.f.t._ W v.l.b.2.N l.@.` 5 ' h.p.h.d.d.f.n.n.( W A.V.2.u l <.1.1.D ",
"Q =.t.1.@.-.p.M.A.E y p.n.n.h.f.n.S.A.E Q d.f.p.t.h.M.b.f.k ! p.p.p.-.( b.V.A.D ) 5.h.p.*.1.d.V.V.E P p.2.f.c H V.n.p.H ",
"E ;.b.h.v.n.2.V.V.D & 2.b.b.h.b.V.A.V.E W h.p.2.v.M.V.b.#.1 W 5.c.c.s.E b.b.V.W W 2.h.h.f.l.f.A.a.3 E 2.f.2.#.^ A.V.p.A ",
"F f.n.S.A.B.n.p.4.- A k ( M.b.p.f.2.t.S W c.c.a.i.s.c.K *.( ` d.n.V.t.^ b.l.V.l H q.h.b.n.f.h.1.` ^ E h.b.v.f.X.V.n.2.2 ",
"2 Z | E ) ( T t ^ X g l p 6 E C U U D * q T ` ^ G G Z w ( 0 k F W ) C y E ( ^ % 8 G | U H T R k ( < h D D E H * H ^ N 2 ",
"j E W o. . .) h E r j *.( H v Q | X.( s f W L C ) ' { / F 8 b 2.o... .] *.#./ d j L P ` E E / ) F 0 j *.` / E 2 : *.) y ",
"W A.A.A.V.n.f.#.*.A U -.1.6.} 2.;.-.-.G E q.%.X.q.p.l.-.@.h ..V.A.S.A.N.p.t.2.H W -.2.5.1.7.e.1.#.i U 2.2.1.r.d.U X.6.H ",
"L V.V.A.l.,.p.t._ = E t.q.r.| q.1.1.;.H n 2.1.G 1.h.h.t.2.l [ A.A.A.V.n.d.2.2.F F r.7.r.;.@.1.2.=.l ` 2.2.2.d.h.b.*.#.E ",
"[ V.V.A.h.q.t.1.7.y ` f.t.f.( :.2.2.2.U ~ n.b.G n.5.2.f.n.A o.A.n.A.M.c.f.2.2.H ] t.t.p.1.=.q.2.q.A X.N.n.V.V.f.f.b.p.2 ",
"] N.b.a.,.&.%.2.f.H ) f.b.h.t.r X.2.n.E ] V.V.| ( s.r.7.l.F  .M.M.f.p.r.2.v.f./ W t.h.h.t.7.-.=.h./  .N.A.V.V.n.b.n.A.E ",
"] M.d.5.q.p.2.p.h.` o.b.h.M.b.] | p.b.`  .v.b.y y A.f.e.2.4 ` h.h.t.v.M.l.l.v.` ] b.h.h.p.t.2.#.f.X.o.V.V.V.S.S.A.B.V.( ",
"] b.b.t.e.h.f.e.l./ t.M.b.b.b.q.p | b.N H A.c.1.B I ( *.( S *.h.f.h.n.V.V.n.h.U { V.l.l.h.q.e.=.b./ s.A.N.V.V.V.v.d.h.E ",
"W f.h.2.1.q.l.p.h.E l.A.h.f.d.( <.Y ( h n B.n.n.H n.t.e.2.G ` l.h.f.v.V.V.n.6.E ' S.V.l.7.&.p.2.h.( v.b.6.N.N.N.b.b.h.G ",
" .v.v.2.2.l.l.l.M.H o.M.n.p.1.t.t.*.t.H o.S.S.A.` B.p.l.p.( T ` <.t.f.V.A.M.N.v X.V.V.p.q.,.e.q.t.H D 4.V.V.b.N.n.n.n.G ",
"h H A A G G A P A > F ) H ^ ( D j E v % j ) W P 2 / E F P 2 A T 4 Q ( / | / v $ h E P D D C A S v 1 5 - U ] ) / U ^ j O ",
"r ] Q Q / Q Q = 0 : s W W 0 W ) W W W d 9 E j ) ] ' / P L a f W ) W W  .Q e Q j q P h E E E E W E s s E v W j E / W W s ",
"Q 5.f.v.V.S.A.1.~ / ! V.2.X.t.5.v.b.t.H b _ l.n.S.c.p.,.i./ P s.v.b.A.S.) j.S.Q W ` 1.d.t.f.d.j.d.E 9 t.*.V.<.` V.v.f.E ",
"E 5.v.N.V.S.D.S.( ) e *.` t.b.M.b.n.l.) ; ( h.n.V.l.s.l.M.` P a.d.n.M.S.X.S.S.| E ( b.d.b.b.V.n.v.| E %.*.E p.S.n.V.d.` ",
"] h.n.V.S.A.D.D.<.E ~ A.l.b.b.b.A.V.V.W j <.n.n.c.h.l.V.V.P ' h.v.V.S.S.T S.S.Q 0 6.n.b.v.b.S.V.V./ ~ N.X.| l.V.A.A.S.W ",
"o.n.f.V.S.V.S.D.A.D ] n.s.f.M.V.n.V.S.) C l.1.h.l.b.V.l.l.^ 9 n.n.S.S.c.G S.S.) o.V.f.h.B.V.V.V.S. .] h.1.b.V.V.A.n.V.) ",
"] N.V.V.S.N.S.S.A.o.! h.h.s.V.S.A.S.S.` H 1.;.v.h.h.p.q.e.H F *.| :.S.) 4.S.S. .E f.v.v.V.S.S.S.S.E ~ 1.1.t.h.b.h.t.h.) ",
"E A.V.V.A.S.V.S.V.Q W t.t.t.h.V.S.S.S.) v s.t.b.n.f.q.q.d.H W B.V.G S.E S.S.S./ Q f.t.f.6.V.S.D.R A ] r.r.f.M.f.f.t.b./ ",
"r 6.S.S.S.V.V.v.N.) ] v.1.1.v.N.V.S.V.) U ` / d.l.f.7.2.p.E ~ V.S.o.) I V.v.b.E ] f.v.f.t.M.A.c 4.j ] M.h.h.v.n.t.t.h.E ",
"W I 6.S.S.A.N.5.e.H X.b.f.d.V.h.v.b.V.D ~ n.o.I :.A.n.c.4.T [ A.S.S.j.( G t.r.A W B.n.l.b.f.( o.S.| ..V.n.t.d.n.c.l.T y ",
"r D T j  .| X.T T $ D H E / ( I U U E * d ` | E y y X.` H O l ( H ) ` ( t p D 2 e ( ) E E u U T ( 1 h E E H G E ( k U 7 ",
"j r W U E ) |  .W s v T ` ` E E | *./ r j ~ W ) / ] ] E / d q X.`  . .] #.*.] s j w E { ) E ` ] F 0 x 6.) ) h ~ o.*.] q ",
"h *.6.1.) 6.j.v.n.L c v t.l.t.1.1.2.2.E ~ b.b.f.1.f.v.2.l.P F p.t.p.v.n.V.V.d.6 A | t.s.;.@.-.;.1.F  .n.v.2.;.2.b.q.M.E ",
"F p.h.2.I ;.d.b.V.L U f.f.h.t.t.f.t.5.E F B.V.d.r.b.b.2.f.F / f.v.r.2.t.b.b.| b - <.t.h.1.-.t.2.1.H ] n.N.f.1.d.b.r.b.U ",
"~ f.t.r.^ 2.b.b.M.H o.f.n.h.b.p.2.2.2.U ~ d.V.v.t.b.b.2.l.D o.f.f.t.t.t.b.1.o.] j l.v.l.l.r.2.1.2.v X.b.<.u d.v.b.;.h.H ",
"Q 1.f.t.( D b.B.V.F  .b.M.M.V.l.f.f.2.( ~ n.n.n.t.r.2.2.b.H ] b.h.t.1.2.1.<.V.` W r.M.V.M.h.f.f.t.H / ;.` V.p.2.1.7.l.E ",
"8 &.2.t.Y d f.p._ u  .A.V.M.M.n.f.V.N.)  .V.n.V.b.2.r.f.f.T ` b.b.h.2.2.I S.S.] ] b.e.n.l.l.h.M.V.( v A.n.N.b.2.q.d.t.^ ",
" .:.#.r.Z :.>.4.A.P a.B.l.M.s.f.n.V.V.E ` d.t.f.t.f.V.d.f.^ e.;.v.t.;.q. .A.S.) ) l.d.h.e.q.l.n.( e o.f.t.p.p.t.M.p.p.H ",
"L 2.2.( :.p.l.b.V.W n.h.c.n.p.l.n.V.V.E W j.p.t.v.V.V.V.f.A h.f.b.N.v.f.o.M.A./ E p.h.h.e.q.c.) V.E d.v.p.e.p.n.V.V.t.E ",
"( t.d.V.b.f.v.f.V.` *.2.h.l.l.p.p.t.f.v  .B.n.b.d.n.S.V.n.C X.d.b.A.M.( v 1.D.E { 2.h.f.p.2.( 6.t.E *.n.n.d.t.b.A.V.b.v ",
"0 A F U ] / U H L 2 v G F ^ ( B I E g O j E E F U E ( F B - G U E ) k H ` v 9 & d k A G G m k A D - B ^ G ( U D U / A o "
};
