/* XPM */
static char *_29d37568b864b01cd372a5e420e0fadR1lDXauEFcrA9spG[] = {
/* columns rows colors chars-per-pixel */
"60 60 141 2 ",
"   c #A9876A",
".  c #AC8A6D",
"X  c #B08D6F",
"o  c #AE8C70",
"O  c #B18E71",
"+  c #B59374",
"@  c #B99776",
"#  c #B99877",
"$  c #B49479",
"%  c #B8967A",
"&  c #BC9B7C",
"*  c #BFA07F",
"=  c #C19E7F",
"-  c #C1A17E",
";  c #BE9F81",
":  c #BFA081",
">  c #C09F82",
",  c #C4A484",
"<  c #C9A785",
"1  c #C7A886",
"2  c #CBAA86",
"3  c #C5A58A",
"4  c #C8A789",
"5  c #C6A98B",
"6  c #CBAC8C",
"7  c #D0AF8B",
"8  c #CEB08E",
"9  c #D3B38E",
"0  c #CDAD91",
"q  c #D0AF92",
"w  c #CFB193",
"e  c #D3B493",
"r  c #D9B791",
"t  c #D6B895",
"y  c #DABA95",
"u  c #D4B599",
"i  c #D6BA9C",
"p  c #DBBD9B",
"a  c #E0BF95",
"s  c #E0BF9A",
"d  c #D7BCA1",
"f  c #DBBDA2",
"g  c #DCBFA8",
"h  c #E0BFA2",
"j  c #DEC19C",
"k  c #E3C49D",
"l  c #E8C79E",
"z  c #E7C89F",
"x  c #EAC99F",
"c  c #DCC2A3",
"v  c #DEC8A5",
"b  c #DDC3AA",
"n  c #DDC9AB",
"m  c #DFD0B9",
"M  c #E3C5A3",
"N  c #E8C7A6",
"B  c #E4CAA5",
"V  c #ECCCA3",
"C  c #E2C5AB",
"Z  c #E5CCAB",
"A  c #EACDAB",
"S  c #EED0A6",
"D  c #E7D0AE",
"F  c #ECD1AD",
"G  c #F0D1A7",
"H  c #F1D4AD",
"J  c #F6D8AF",
"K  c #E4CBB2",
"L  c #EACEB4",
"P  c #E3CEBB",
"I  c #E8CFB9",
"U  c #E5D1B3",
"Y  c #EBD4B4",
"T  c #ECD8B7",
"R  c #E4D3BC",
"E  c #ECD6B9",
"W  c #EDDABC",
"Q  c #F1D6B3",
"!  c #F4DAB5",
"~  c #F8DBB7",
"^  c #F1D6BA",
"/  c #F4DCBB",
"(  c #F8DEBC",
")  c #F6E0BE",
"_  c #F8E0BE",
"`  c #E3D3C3",
"'  c #EEDDC1",
"]  c #F1D6C0",
"[  c #F3DDC3",
"{  c #F6DCC5",
"}  c #F5DDC6",
"|  c #F6DDC6",
" . c #F8DFC0",
".. c #F4DEC9",
"X. c #F8DFC8",
"o. c #EFE0C5",
"O. c #F5E1C2",
"+. c #F7E2C3",
"@. c #F7E3C3",
"#. c #F3E1C5",
"$. c #F8E2C1",
"%. c #F8E3C4",
"&. c #F9E3C4",
"*. c #F9E3C5",
"=. c #F1E1C9",
"-. c #F1E1CA",
";. c #F3E3CB",
":. c #F7E0CB",
">. c #F4E4CA",
",. c #F4E4CB",
"<. c #F3E3CC",
"1. c #F7E3CE",
"2. c #F8E5C8",
"3. c #F9E7CA",
"4. c #F9E7CB",
"5. c #FAE7CA",
"6. c #F8E4CF",
"7. c #F8E7CF",
"8. c #F7E8CE",
"9. c #FAE9CC",
"0. c #FBE9CC",
"q. c #FAE8CD",
"w. c #FAE9CE",
"e. c #FAEACF",
"r. c #F6E3D1",
"t. c #F6E3D2",
"y. c #F6E4D0",
"u. c #F4E4D3",
"i. c #F9E5D0",
"p. c #F8E4D1",
"a. c #F8E5D4",
"s. c #F8E7D7",
"d. c #F7E9D7",
"f. c #FBEAD0",
"g. c #FAEAD1",
"h. c #FBEBD1",
"j. c #F9E8D7",
"k. c #F8E7D8",
"l. c #F9E7D8",
"z. c #F8E8D8",
"x. c #F9E9D9",
/* pixels */
"p p j c M j p @ 3 6 3 > ; 3 3 6 5 0 5 o e c c d c c n n v n c 1 u / / ( _ _ ) ) ) ) ~ B 3 C K M g K K K L I L C . u n v ",
"w.w.4.%.@.@.~ u :.i.i.r.r.a.l.i.r.1.} w E ,.<.<.=.=.,.,.o.W Y t A e.e.e.w.w.w.4.&.[ _ H K i.a.z.a.l.z.k.u.i...} : ' =.,.",
"7.f.w.@.[  .! p 1.u.z.z.l.z.z.z.i.r.} d W ,.,.,.<.,.,.,.W W T t Y 7.f.e.w.w.f.w.@.@._ G L i.z.z.l.l.l.l.a.p.1.[ 5 [ ,.,.",
"f.w.f.@.@.( G M p.z.z.z.l.z.z.z.p.i.] i T ,.=.<.=.1.,.=.' W Y 8 F &.R ..4.4.2.@. .) H x K =.u.r.r.t.r.a.p.4.} L 2 ' ,.=.",
"/ / / Y ! Y V y ^ [ ^ } } } [ &.[ ^ Y 6 Z Y U Y E Y Y D D Y B 2 p G J Q F H ! F Y H S z j Y Q ^ ^ ^ E / Q ^ L A % D D Y ",
"k z x B V z k , M C Z N C A Z A L L A & = , 1 1 1 2 t M B B j 8 t p k M z r 6 e r 9 7 , & t u i p t 7 q q t q ; . , < 1 ",
"F % j c c p p c v n Z Z c % Y _ ( %.@.@.%.( %.( Q & ! 9.,.9.9.7.4.4.&.@.~ M f Y E E E E T E E E K c = Q ( %.%.%.%.%.%.@.",
"! 8 W ' ' o.' #.o.' W Y Z t ) f.f.f.i.w.w.w. .%./ e &.w.w.f.,.f.w.&.@.) _ B Z ' #.o.o.,.' =.' W Y N 6 %.f.w.w.i.f.w.4.@.",
"H t W #.=.[ o.o.#.o.W E Z y ) w.w.w.9.9.4.4.) &./ y @.w.w.f.f.f.w.4.@.@.! k U ' #.=.o.=.#.=.o.W Y j t @.f.f.e.f.5.5.5.( ",
"V e Y W W ' ' ' ' W W Y k r ~ &.@.&.&.&.&.) _ T H 7 Q ( @./ W ) ) E / ! V k B S U Y T Y T Y Y Y B y 9 / %. .%.%.%.&.&./ ",
"V 1 B B Z B B Z B Z Z j j , V F ! J ! ! J ! ! ! H - y k B B B V V G G V x 9 9 p j j k j j j j p y 6 - S Q Q Y Q ! ! Q ~ ",
"9 1 t t y r t > 1 1 1 : & o + $ + # % + 6 t w 8 6 4 6 5 6 0 8 & 4 M Z Z B M M B B B M w & w 0 0 5 3 0 t u i f e @ 6 y 9 ",
"%.4.%.%.%.( ~ 6 E } } } ' } ....,...} 3 Y ,.,.#.=.,.,.,./ W Y t A 9.4.w.w.w.9.4.%.%.( Q C 1.a.u.<.r.k.u.i.1.X.{ & T o.,.",
"w.w.w.%.[ %.! p 1.u.k.u.k.k.z.k.f.,. .f E ,.,.,.,.,.,.,.' W W t F w.f.w.w.w.f.7.%.@. .G L l.u.l.z.z.z.l.u.1...{ 5 / ,.,.",
"f.w.w.@.&.&.H k u.k.k.d.k.k.k.z.r.i.} i W ,.,.,.,.,.<.<.W W E 8 Y 9.w.w.e.e.w.,. .@.Q V L i.u.u.z.k.z.u.z.,.1.Q 6 ' 1.=.",
"@.@. .E / Q V p  .....1...r.....} ..L e Y W E W o.W W E T Y D 8 B ! ! / T ! / Y ! ! F V M ^ [ [ [ } [ [ } [ Q L , Y E E ",
"G H G H H S V 6 Q Q Q Y Q Q Y T Y Q L > e t i t j j j j j p 8 @ = 9 r y a k k x z z s 7 5 f f h N M N C C M c 0 . t i t ",
"1 O & & & @ @ + % & & > > + % , 4 4 , & % % @ + .   4 u i p p f h c s p y , $ & & & & & : , 1 3 , &   O # & , , & % @ @ ",
"Q , U E Y U Y E E Y Y Y A , ! &.&.%.%.4.4.@._ @.! & / 9.4.9.w.w.9.%.&.&.( M p E W E E T W W W W L M , Q &.&.&.&.&.4.4.) ",
"! 9 W ' =.' o.o.} [ E T A u ( e.f.7.f.f.w.f./ @.) t &.w.e.w.7.f.h.&.&./ ( N Z [ #.#.=.#.#.#.' W Y Z e &.w.w.8.w.f.w.8./ ",
"S u / ' o.o.,.o...o.E W B y / e.7.4.4.4.4.&.) ) ~ y ) w.w.f.w.f.w.&.&.&.H k Y T #.=.o.#.o.#.W W D j 9 &.w.4.4.4.9.4.&.) ",
"V 7 Y T E E T T R T Y D k 9 ! _ &.&.&.&.&./ ~ Q H 7 F ~ / ( ^ / / T ! / F y k F U Y F Y Y U U Y M y 9 ~ &.&.&.&.@./ ) ~ ",
"l > j j k k j k k c k j i & k A G Y H Q ! ! Q ! G * 8 y y k k x V x V N N < < r t y y j j j y y t - * z V H F ! ! ! ! ! ",
"B c B B Z Z B & w u w 6 5 0 6 t e u u + t f j i t i i d i i i ; 6 Z A A L S Y Y Y F Z p : d b i d d f c b C c c X i c j ",
"7.4.5.&.&.) ! u :.,.i.i.i.l.l.u.i.i.} w Y =.,.,.,.,.,.,.W W W t A 7.w.w.7.w.e.5.%.@.( ! v i.l.l.u.j.z.z.i.i.:.} : W ,.,.",
"7.e.7.@.[ @.~ p u.l.z.z.z.z.z.z.t.r.} d W ,.,.,.,.,.,.,.W W W t Y f.w.f.f.f.e.4.%.@.( G I i.l.z.z.j.z.z.u.j.,. .5 o.,.,.",
"e.e.e.&.%.( G k 1.u.u.z.z.u.l.z.r.1.^ p W ,.,.,.,.,.,.,.W W T 8 F &.4.9.7.4.4.@. .@./ x L 1.i.u.u.i.d.u.r.p.} ^ 5 W ,.=.",
"/ ! ! Y ! Q V r ^ ^ [ }  .} [ [ [ [ Y 6 D T Y T W E T Y T D D 2 x ! Q ! Y ! ! Y Q Q V x f ^ ] ^ ^ [ ^ ^ ] ^ L A * Y Y E ",
"j k l B z k y : f f f M C M C N C A h % , 1 1 2 8 8 6 6 8 8 - @ % 2 2 6 9 6 9 t 9 9 9 - % 6 0 q e q u u u y u 4 + - 1 2 ",
"6 . @ ; % % & : ; , , 3 , + N / ( %.&.( &._ / Q A & B ) ) %.&._ _ &./ _ ! y , i p i i j c c v v c e % V ( ( &.} _ %.( / ",
"! 2 E W ' E ' ' ' W W E Z e ( w.f.f.w.f.w.w.[ 4./ 9 ) w.f.w.4.w.w.&.@.) ( N v ' =.' ' o.o.#./ E Y C 6 &.e.e.w.f.f.f.,.@.",
"Q t ' ' o.o.o.=...' E Y Z y %.f.f.f.w.w.w.w.) @./ y @.h.h.h.h.f.w.,.&.&.~ B Z ' o.=.o.=.=.[ ' E Y M t &.f.e.e.7.4.8.w./ ",
"V y W %.=.o.#.#.o.o.T T Z y ! &.&.&.9.&.&.&.! ! ! 9 ! @.R ,.4.4.%.@.) / V k Z T T W W ' ' ' W T Z p 9 ( 4.@.&.&.4.%._ ~ ",
"x 6 A U Z F Y U Y U U B j 2 J _ / / / / ~ ! / ! J , G S H H S Y H H H Q S y p B Z B B M B B Z B k y < J &./ ! ! ( T ) ~ ",
"9 @ 6 e 9 t t t t t t 9 6 O - 2 2 2 5 e 9 t t e 6 @ & , 2 6 8 2 7 p k M k e t p p p p t , 1 1 , & % % 0 9 t y i 9 t y r ",
"/ / ) ! / Q F & u f i i i f b B C C C % F W / ' ^ ' ' [ W T Y 8 M %.4.&.@.2.4.&.&.&.&.G u | ....:.:.1...@.&.} E $ Y W W ",
"8.w.w.4./ @.~ y ,.u.j.j.d.z.z.u.i.r.} u E ,.,.,.,.,.,.,.' W T t D w.f.f.8.f.f.w.%.( ( Q K i.z.z.l.l.l.z.i.r.X...3 ' ,.,.",
"8.w.f.@.@.@.~ p 7.j.z.z.d.z.z.z.1.1.{ f T ,.,.,.,.,.,.,.' W Y t ! 4.f.f.y.f.w.9.&.&.( V Y u.z.z.l.z.z.l.l.p.p.^ 5 ' ,.,.",
"w.9.4.) @.! S p =.,.u.z.z.u.j.a.i.1.Q i T #.' =.,.#.[ ' T T D 8 A ) K  .@.@.) ! ( / F V Z ..} ......1.....1.^ L 3 E [ o.",
"F T ! F Q F V t Q ^ ^ ^ ^ ^ ^ / ^ Q L 3 c A A A D D D D D Z B , 9 V V F S F F F H G V s u L Q T ^ Y Q Y Y Y L M + M D Z ",
"k 9 u y y t e & u u i f i u f N Q Y N 6 1 1 , , * + y A A F Z B B Z B A N 9 < e e 9 6 5 5 w e i i 6 % , 6 t t 2 , 2 , , ",
"H 1 D T Y Y Y E E T Y Y A 5 / 2.%.9.4.4.4.4.&.&./ 3 ( 9.w.w.w.w.w.&.@.@./ N v E ' ' W ' o.W W E Y v 5 _ %.&.4.4.7.w.@.2.",
"! 6 W ' ' ' ' <.[ ' W T Z y &.w.f.w.w.w.9.w.( @.( u @.w.f.h.w.h.w.@.&.[ ( M Z ' [ #.=.=.#.=.o.W Y B 9 &.f.w.w.w.w.w.w./ ",
"G u W #.=.o.' @...o.W W Z y ( 7.4.4.9.w.&.,.) @.! t ) 8.w.w.w.w.f.%.&.@.J k L ' ' ..' o.=.#.W W F k 9 &.w.w.4.,.&.9.2.) ",
"V 9 T Y Y E T T E Y Y D k 9 ! ( /  . ./ ( / / T ! 2 H ! ! ! T ! / Y ! ! V a k Z A D U A Y Y D D k y 6 ! _ _ / %.&./ ) ~ ",
"k - k c M M B c B B M p y @ y p M N N B A S F S k @ < 7 9 9 9 y y p k k a < < t t 9 t e w 9 9 8 6 & @ y k k k N A V D S ",
"j p j c M j p @ , 5 3 , > 3 3 5 5 5 6 . w c c i i b B c n n v : i Y ! / / / / ( / / Q N 5 b C c b K C I L P I C o i c c ",
"w.4.w.&.&.&.! t 1.,.a.r.r.l.r...r.1.} w T ,.,.,.,.,.=.7.W W T t A w.f.w.7.f.f.4.%.[ &.Q Z i.z.u.u.z.z.u.j.,...} , T ,.=.",
"w.f.e.&. .) ! p X.a.z.z.z.z.z.z.i.i.} f / ..,.,.,.,.,.,.W W T t Y f.e.f.f.e.f.4.&.&._ S Y u.a.z.z.z.l.z.l.u.1. .6 ' <.<.",
"h.f.w.@.@.) S M 4.l.z.z.x.x.z.l.p.a.] i W ..<.,.,.,.,.,.[ W T 9 F %.4.%.7.4.&.&.) ) Q x A 1.r.r.j.u.i.r.i.1.} L 2 [ <.=.",
"/ / ! T ! ! V y ^ | ] [ X.} }  .}  .L 6 Z Y Y E T Y Y U Y Y B 2 k H H H F H H Y H H S z f ^ ^ ^ ^ ^ ^ ^ ^ ^ Q A & Z Y Y ",
"N V V V V N k , f C Z A A A A L A N M + & ; , 1 1 1 1 1 1 , & O O = = < 2 2 2 9 7 9 , : % 4 4 6 0 6 q q 0 q 4 $ . & , , ",
"e . ; , - > , , 1 5 5 6 3 . = 6 t i t t e w 8 5 , . p Y Y Q Y / / Y / Q F 9 , w w w w w t i i p p 4 X , 7 u p y t e w 8 ",
"! 5 E W W T ' W W W E Y A 8 ( 9.9.9.9.w.w.4.&.&.( 2 ( w.e.w.w.e.w.&.@.@.( B c ' ' ' o.o.' ' ' W U B < &.4.&.i.f.w.9.@.&.",
"H e ' o.=.=.' =.o.o.T T Z y ) f.w.w.w.f.f.w./ @._ t &.w.f.f.w.w.f.,.@.@./ B Z [ #.=.#.=.=.' ' W Y B 9 &.f.f...f.h.h.w.W ",
"V t T #.o.=.' o.o.#.W T B y ~ 4.4.9.4.&.,.,./ / ~ 9 / 4.4.w.4.4.%.%.@.@.S k D E ' ' ' =.' ' W T Z p y _ 4.5.5.7.2.2.4./ ",
"V 6 V D Z Y D Y U D Y B j 9 J / ) ) ) ) / ) / Q J < S ! Q ! Y ! ! A ! Q S y k Z Z Z Z A A Z Z A k t 2 ~  .( / ( %.! ( / ",
"t % 9 t t y y y y y t t 8 . 7 t y y k k M B x z y + & - 1 5 6 9 9 u y k r , , 9 9 t 9 6 2 6 2 2 , # + 9 r y y k k M V B ",
"Q / ! T ! Y A ; f b f f g g b b b g c & i n K n n Z U Y U U Z 3 p %._ ) %.%.%.%.@.@._ V 0 I P P R R E E E ] ^ K . b Z b ",
"R R R U K K B 5 P ` ` ` ` ` ` ` ` ` K 3 b m m m m R m m n n n 5 i E ` R R ' R R U n Z j i ` ` ` ` ` ` ` ` ` P K $ b m R "
};
