/* XPM */
static char *e4042d63f2f845a4f2fbfabe38285e28Ij77CaytTqgQVwwq[] = {
/* columns rows colors chars-per-pixel */
"60 60 88 1 ",
"  c #594534",
". c #674C3A",
"X c #6C4E39",
"o c #69513E",
"O c #74533B",
"+ c #79563D",
"@ c #7B5A3E",
"# c #635445",
"$ c #695645",
"% c #6A5847",
"& c #655748",
"* c #6D5A48",
"= c #7E5B41",
"- c #735C4A",
"; c #7B5F4A",
": c #7F614C",
"> c #825E42",
", c #846245",
"< c #896446",
"1 c #84654D",
"2 c #8B664C",
"3 c #866A4F",
"4 c #8D694C",
"5 c #936D4E",
"6 c #996F4F",
"7 c #94704F",
"8 c #856A52",
"9 c #8C6C52",
"0 c #946D51",
"q c #986E51",
"w c #8C7156",
"e c #8D7459",
"r c #947254",
"t c #9C7454",
"y c #9E7956",
"u c #94765A",
"i c #9B7759",
"p c #95795C",
"a c #9B7C5D",
"s c #A17655",
"d c #A27A56",
"f c #A47D5A",
"g c #A87F5A",
"h c #967D61",
"j c #9A7E60",
"k c #A5815D",
"l c #AB835E",
"z c #9C8265",
"x c #9D8569",
"c c #A28565",
"v c #AC8661",
"b c #A78966",
"n c #AE8964",
"m c #A18768",
"M c #A48A6C",
"N c #AB8D6B",
"B c #B28C65",
"V c #B28E69",
"C c #AA906F",
"Z c #B59067",
"A c #B5926B",
"S c #B9956E",
"D c #BA986F",
"F c #A68E71",
"G c #A88F70",
"H c #A79073",
"J c #AB9374",
"K c #AE9679",
"L c #AF987A",
"P c #B59571",
"I c #B99771",
"U c #B59875",
"Y c #BC9B75",
"T c #B09779",
"R c #B29A7B",
"E c #BE9E79",
"W c #BFA07B",
"Q c #C09F78",
"! c #C1A27D",
"~ c #B59F81",
"^ c #B7A184",
"/ c #BBA382",
"( c #C3A681",
") c #C5AA85",
"_ c #C7AC89",
"` c #C8AE8B",
"' c #CAB08E",
"] c #CBB391",
/* pixels */
"XXO=<5tydkknAAZBBZZAYYIDZBBBBZAASBlgdgvBBllgkgsssyy675<<@+O+",
"  .O=<6tdglAIUDDUWWWWW!WWYDSAD!!!QIVBlvVBlgss66767t775<>@@+@",
"XO=,7yfklnPEWWWWW!!!)((!WYYDYYQ!EYYSAASSZBllllkddkllkdt74<<,",
"=>4tykllBSUQWWDDDWW)__)(!!WDYYQ!!!QYSYQQYDZZBBBlBBZllkfdk774",
"<77ylbZPY~((Q~YE!)W(__((((!W(())_((!!EQYYWYYYPAAPDANnllkyytr",
"33uuzzzxFGGKKHKKKKKJHJCbMMMCCJJJGMMGGGGGCNCCMCMMMMMMMzzpe7ww",
",<5ykllAIPYYYYYEWDWDWWW!W!())))(((!!((((W!!WYYYYWWWDUDBlkyti",
"46yklnDDPIAIYYQQWYYWIWWWYW!!()((!IISSUYYIIIWW/!YDDWIUAPbkfsi",
"55tkvBBBnnVVVIYQQYIYYYYWWYYYWWE!QQQYQQQ!((!!)_))!(WWEEUVBvga",
"<456idklvBBBBBVVBBlvnnBBBBBBBAAAVBvBBVVSYQYIYE!!WWYUVnncgiii",
"7tdlBASIYEYYIQY(!QQYEE!!(WWYYY!!IAVvvvvBBVVBBBZSAVZnvvlkgdsd",
"r09ricbNNNGJTJGGNJJTKTRRRRLTTTTKTTTTPJJJGNJGNGJTKJJHJJJJFMMm",
"2122qfgvvBVVAVAAAPIYY!!(_''''''']`]']]]`'`)()___)))!!EYSANnN",
"449qtflBBBBvvgggggvvBZS!(_'''__)_____)))))()(((__))(((!!(!WE",
"qqqqsgBBAIYYYYYQ!((Q!!!!((__'']]]]]`___``'``_____))((!!YYEYU",
"tqssdfvVAASASSIIYY!)''''''_'_'']``_))))___``__))(!!YYEWWYYPY",
"fggkgvgnvfgvBIISVVVSYEEYY(_'```___))____)_'_))(!QQQQYQQIIVBZ",
"89euhhhhhhhjjmMMMMmNMFMFFMFJHHHFJJHHFMMMMMMmmcMMFMmmcmjmmmmj",
"klBBPIQQ()'')(QQ((()`]`_))!!(!(()!!!EY!!!!WWQYIYUQQSPIVZVBvB",
"nBVAIYQQ()`'`)))_))(_)(!EE!!)))_((!!((!(!()___(())(((QQIASAQ",
"tsdlBZSIYQ(QQ!!(!!WE!!!Q!!((())))_______))_!!Q!QQ!(!QQQVBnBZ",
"tdgnZSQYQYQYQQQ!!QEYYYQYQY!((((!YSAASYYYYYYY!(!EYIIQQIPBvggl",
"dsdlVVVABBVVASSQYYYYYYYQ!YYE!!!!!WYYYYW!(!!(_`__))(!(QYIVBnv",
"899tiajjjmMmmmmbbcxcmmMmNMNMcMMNmvccccvbMcNMNMGGMMbmmmjjaiii",
"gfffgVgVvfgvVPQQSASYY!YYY!_'__'___)()``)_)__))((!QQQQQYYQVZZ",
"09990eiiissvVY!!((()`]]]']''''___(__)_`!)))''__)))!QQYIIIQIP",
"92qtsssgvBVPSAZZASDQ!((_)__'__`'_'_((!!!QDAASAAZBvBnBvvBBgng",
"11129900ifgnvvllBBAASYYYYSYDDSDQYWWW!!!!DZZDDYSSSAAAZVVVBvvg",
"*$$*%%$*-;>:110tsfggkllvvnVASSYYW!!W!!((((()']]]]]]]]]]]]_(Q",
"&#$*-*---;1:>111,11139riiu0223239rikbCK~//^^^/^/^/^/////~~~~",
"TPPPTITIUUUY~~W//(~////^/E//////W//////WRUPPACVNCAANBvjfsiii",
"(QQQ(Q/((()))_)_`'``__))`]]]]]'_''_))_))((WWYYYSYPSVBvlfsqis",
"((((((((()____))_)_)))))_______`__)(!IAVBBBBnBvVVVAAVBgsi004",
"PAIIQQQ((((()(((!))____'''_)_`_````_)(!QYYISAPPPPIAVBvgq9221",
"QQIY/()`)((()())))___)____'___''_'__)))(!YSVVQQQWYSAVZBd20qt",
"VPIU~IU(QQQQ~(//WEEYYWW!!!YYYYYYWW!(WEEYYIVSIIIPSABnvvggqq09",
"i0quiigjMgNGgffgbbNNNJKURRRRR~RRRRLRLKJKKTTUTTTTUTKTTJKJTMgM",
"isssfggPQVQIQQQ~Q!()__'___`'']]]]``__``__```))((!QYWQQQ!QQQQ",
"ffffgfgggggggSSVZZZDD!!YY!''```___)_____)____)(Q!!YYYQIIAVBg",
"9909uiiiiisgVQ(((!!!(`'_''''```____))))))(()))))((!Q!Q!QQQQQ",
"400qtfgvBBVSSZAQDQ!(''']]']]'`]]''''''')(QYQEYYIAVVBBllllggg",
"2200q0qtggVAZBBgBZZDDYQDDYYYYYYYQQYYYYYYSZVSYYIAVvvvllllllkg",
"ew9weeuujhjjxjfjzzxmmzzzazajajhiuuuppppuuuuiiuuuupaaaauu0998",
"cgvBVUYUQ/((((((WY!!YDSAAASYYQEYQYYYSSSSVZVIYSAVBBBllllldi09",
"vvvBIY!(Q((()```!!(!!!!YYY!!)))(!!!!(!!!Q!!!!WYYSAVASSZBvgst",
"nvvBBIUQQYYQQQE(!!!!!!!!YYYQQQQ(QYYYY!YYY!Y!!!!!!!!!EDZBldt6",
"VnvvVYY((((Q(QQ(!(!!!(((!!(()__)_(!!!()(((!((!E!!!YYSAZBlgst",
"SSAAIYYQ(()))))``'_()!((())_)__`((!!!())!!!!!!!(_)!QYYDZBvkg",
"apazpaazzzkxccmbMMCFCHHJGGKKKKKFJJKRLLLLJJGGmmcNNMFmxchirr99",
"vvnnBZSPIDW!!())_))__`__``````''']]']]]'_))(QQSBvgggdi00442<",
"NCSPYYYWWWWW!))))))__))()))))```''(!W!(WYIAQQQInfqsdjccdtr65",
"bnAPUYYIDWWW!__'___)))__)_``'''']'__)))(QQIPBZZVVVVnvgsq5544",
"bbCCUEWW/)_____]`]]]`]``]]]]]]]'``__))(QEYPPIPAISSZZvgdt6754",
"CPUWWWWWW/!)))(/)_)_____`]]]''```)))WYPAAAVVnVgnnVNnBvfq43<<",
":wweeeehzzzxxzzzzzzzxzxxxxxxxxxxxxxzzjhph9990wwwweww881;@ooo",
"MCTRW////`/'________/)_`'''`)(Q(``___)))_`'''``'`___/ESnky77",
"wkkzbCSCSWWWWWWWW!!YYEYEYY(()(QY!()_))(((())))(~WWWEUPbky7<,",
"@=,<77kkkNAPPPPBCASSVvvvllvnBPVBvnnVSVBBnvvBVVnnNBnbkkk73>@O",
"=,<77kkbNAUWWWWWPYYYYYYSIAIYYYYIYUIISSVBVVAPPAVBvvcfyyt4<@OO",
"3=37zcNPPJWUW//WWWW/WEYYYEQ!((((QQEE~EYYYIPYYPVVvvkkkkir4=@@"
};
