/* XPM */
static char *_cd4669cc62940c7a3550d7f8c07645dioKle1Ajw558TkYQ[] = {
/* columns rows colors chars-per-pixel */
"34 50 211 2 ",
"   c None",
".  c #070504",
"X  c #120508",
"o  c #19090D",
"O  c #191818",
"+  c #140C10",
"@  c #2F0F16",
"#  c #290D15",
"$  c #231A12",
"%  c #271A18",
"&  c #351119",
"*  c #3C131C",
"=  c #280C12",
"-  c #2D2117",
";  c #2F2318",
":  c #24211F",
">  c #322519",
",  c #3D2C1E",
"<  c #36281B",
"1  c #2F0F2A",
"2  c #252525",
"3  c #2C2C2C",
"4  c #353435",
"5  c #3B3B3B",
"6  c #3C3033",
"7  c #42141E",
"8  c #432C1A",
"9  c #482C18",
"0  c #41301F",
"q  c #4B1722",
"w  c #491722",
"e  c #551A26",
"r  c #5A1B28",
"t  c #621D2C",
"y  c #691F2F",
"u  c #6A1F30",
"i  c #4A252A",
"p  c #4E3927",
"a  c #4B3829",
"s  c #503B28",
"d  c #55292D",
"f  c #63272F",
"g  c #6C2031",
"h  c #632830",
"j  c #762235",
"k  c #7A2A39",
"l  c #753A39",
"z  c #673932",
"x  c #5B442D",
"c  c #5A4432",
"v  c #674736",
"b  c #764A3B",
"n  c #6C543D",
"m  c #7C513F",
"M  c #755B3C",
"N  c #2F0E48",
"B  c #37154E",
"V  c #351050",
"C  c #3B224D",
"Z  c #471F53",
"A  c #4E3054",
"S  c #6E3B4B",
"D  c #411464",
"F  c #49196A",
"G  c #4E1974",
"H  c #561D7E",
"J  c #5C2A6B",
"K  c #6C3475",
"L  c #434344",
"P  c #4B4B4B",
"I  c #48444B",
"U  c #4B4351",
"Y  c #554956",
"T  c gray33",
"R  c #5D5D5D",
"E  c #58545B",
"W  c #78594A",
"Q  c #79565A",
"!  c #6A4B48",
"~  c #594565",
"^  c #795F7E",
"/  c #765868",
"(  c #746270",
")  c #86273B",
"_  c #853436",
"`  c #A5343D",
"'  c #8D2840",
"]  c #972B45",
"[  c #813848",
"{  c #A42E48",
"}  c #A83149",
"|  c #B93242",
" . c #A03F56",
".. c #C53445",
"X. c #854A48",
"o. c #8C544D",
"O. c #A35E5E",
"+. c #86674A",
"@. c #9A6848",
"#. c #937741",
"$. c #9B7D45",
"%. c #947842",
"&. c #9E685B",
"*. c #976656",
"=. c #9A7957",
"-. c #896950",
";. c #A6774A",
":. c #A3695C",
">. c #A77B5A",
",. c #B27F58",
"<. c #8E576F",
"1. c #966665",
"2. c #9E6C78",
"3. c #8D7074",
"4. c #A87466",
"5. c #A26B75",
"6. c #A97C77",
"7. c #DD7752",
"8. c #9F8047",
"9. c #A4844A",
"0. c #AC8A4E",
"q. c #A4844A",
"w. c #B3874F",
"e. c #AA8650",
"r. c #B28E51",
"t. c #B88858",
"y. c #B59152",
"u. c #B99455",
"i. c #BD9859",
"p. c #B88A67",
"a. c #B99469",
"s. c #BF9B77",
"d. c #AD8768",
"f. c #C49C5B",
"g. c #C99F5C",
"h. c #C2895E",
"j. c #CBA05E",
"k. c #C08C65",
"l. c #C49A68",
"z. c #CA8777",
"x. c #C69F78",
"c. c #C59876",
"v. c #D5947D",
"b. c #C6A062",
"n. c #CCA362",
"m. c #CEA66B",
"M. c #D5AD6D",
"N. c #D1A968",
"B. c #CCA578",
"V. c #D4AE72",
"C. c #D1A47A",
"Z. c #DBB374",
"A. c #DDB579",
"S. c #DBB576",
"D. c #E2BA7C",
"F. c #5C1F85",
"G. c #5A1A8B",
"H. c #651E98",
"J. c #6C2F85",
"K. c #642787",
"L. c #7E3B8A",
"P. c #652096",
"I. c #6D1EA9",
"U. c #741EB6",
"Y. c #6D21A4",
"T. c #7626A9",
"R. c #7621B6",
"E. c #7C22C0",
"W. c #8F4D86",
"Q. c #86768D",
"!. c #8324CC",
"~. c #998585",
"^. c #908897",
"/. c #AE8F90",
"(. c #ACA8AA",
"). c #DA9382",
"_. c #DE9A81",
"`. c #CC9582",
"'. c #E59F88",
"]. c #CDAC8A",
"[. c #D5AA84",
"{. c #DAB088",
"}. c #D7B398",
"|. c #D0AF9C",
" X c #E8A08D",
".X c #E8AB8B",
"XX c #E9B58A",
"oX c #E3BC97",
"OX c #F4BC93",
"+X c #EDAA90",
"@X c #DBBEA3",
"#X c #C9AFB5",
"$X c #CBB5B7",
"%X c #C8A5AD",
"&X c #E5BCA2",
"*X c #E7C083",
"=X c #FCC399",
"-X c #DBC3AB",
";X c #DDC8BA",
":X c #E8C8A8",
">X c #F1D0AF",
",X c #EED3B8",
"<X c #F9D8B9",
"1X c #E9CEB5",
"2X c #D6BDC3",
"3X c #DFCFC3",
"4X c #CDCED2",
"5X c #ECD6C5",
"6X c #FFE1C1",
"7X c #FFF1D9",
"8X c #EFEDEE",
/* pixels */
"                          u.i.j.Z.D.M.j.f.y.u.                      ",
"                        u.j.*Xj.j.u.u.y.u.u.u.y.                    ",
"                        u.y.u.f.j.j.j.j.u.W D F.!.P.                ",
"                        y.q.q.q.y.y.0.#.P F F.F.U.!.T.              ",
"                      8.9.y.i.M.Z.Z.Z.b.*.F E.F.H.R.G.F             ",
"                    0.y.b.M.S.S.Z.Z.S.Z.d.F Y.Y.G G.I.I.            ",
"                  0.u.N.S.S.S.M.M.M.M.M.B.1.G F.G F.I.E.T.          ",
"                8.r.n.A.S.M.M.M.M.M.M.M.N.m.<.D Y.P.H.U.I.H         ",
"                9.u.M.*XZ.n.n.N.Z.M.M.M.M.Z.n.Z T.I.Y.I.G.D         ",
"              q.r.b.Z.D.Z.f.i.n.A.M.M.M.Z.V.r.J K P.U.I.G D         ",
"              $.e.j.M.N.j.y.j.A.Z.M.N.M.Z.r.$.g.4./ K.J F           ",
"              #.9.j.N.f.y.8.M.V.j.j.M.M.r.$.#.y.m.a.f.t.q.          ",
"              #.8.e.y.r.8.8.m.j.A.*XN.0.t. Xl.q.N.9.0.9.#.          ",
"              #.%.0.0.8.$.y.j.*Xj.y.0.a.+X=X Xq.8.r.e.%.#.          ",
"                %.9.0.8.%.8.8.i.0.q.p..XOX=X=X>.$.y.q.#.            ",
"                #.r.j.%.x =.=.M p.v..X.X6./ / v.0.a.0.#.            ",
"                9.a.V.e.v 3.(.Y C.OXOX`.( ^.( >.e.V.a.=.            ",
"                  B.S.r.W (.^.A |.<X<X`.A ^.(.! y.A.B.              ",
"                  e.S.r.! 4X^ ^ ;X7X7X$X^ Q.4Xv l.m.                ",
"                w -.B.b.W 3X#X#X5X7X7X5X#X$X3Xv m.s.*.              ",
"              7 u o.d.B.>.XX<X6X6X6X6X6X6X<XXX-.D.d.l r 7           ",
"            & ] ' h W S.;.:.).XXOX=XOXOX.Xv.:.>.Z.m S ' r @         ",
"          @ t ` .._ M i.h.j m m &.4.4.*.m b j g.u.v h ' j @         ",
"          @ ..) j j d n ,.j j ). X X'. Xz.) 7.+.a d r r r r         ",
"          @ ) t 6.-.w h ! ).).L.J.J.J.W. X`.~.a ` ` { ' u e         ",
"        7 ] r @.}.>X@X|.|. Xt.K K.F.F.K.<.p.s.a.k ) ` ` | ) @       ",
"        * y r ;.oX<X@X].p.h.w.T.U.I.H.G.K ,.x.>X}.}.O.) ) g @       ",
"        & r t ;.oX1X|.a.w.k.].5.T.U.U.L.5.].x.6X<X6X`.W y r h 4X    ",
"        & r z v.{.[.c.t.;.B.-Xt.K G.H.L.a.-Xx.6X,X<X[.o.r k 2.8X    ",
"        7 e m oX[.,.;.@.W ].1X[.o.Z J 2.{.:Xx.,X1XoXC.@.l S #X8X    ",
"        r r z z.z.&.b z Z |.>X<Xa.S ! C.<X:Xl.@X:Xc.k.,.W Q 3X8X    ",
"        r e @ z v i @ 1 A 1.6.&XB.<.1..X}.6.:.p.h.v.k.l Q $X#X(.    ",
"      r r e @ @ @ @ 1 B H F.F.&.oXB.[.{.1.F.H v v.v.&.d S ~.<.4X    ",
"      r r r @ @ @ @ o . V F.F.F.&.:X{.1.F.H N : v m 9 @ 1 e k 3.    ",
"      f j r @ @ @ % 2 A E N N F.F.2.W.G N N 4 4 4 4 i w @ 7 j u     ",
"      r g & @ @ @ % 3 P E 4 L B B B C C A L 4 P P 5 i e q q o./.    ",
"      t g @ @ @ o 2 P E P P E T T I U P 5 P L 5 I 5 4 i w w O.Q.    ",
"      y ' @ @ @ X 2 P P P P R R R T T P 5 P P 4 5 4 4 i q w } [     ",
"      g ] @ @ @ X 2 P P P P R R P L T T L 5 P L 4 4 3 i q q ] j r   ",
"      g ' & @ @ X : L P L P R R L L T T L 4 L P 3 3 O # * w { j r   ",
"      r ) @ @ @ X O 2 3 5 P R T 5 L T T L 5 4 5 O + + = & e ' ' r   ",
"      * g @ @       . + 3 4 P 3 3 5 P L 5 2 2 O . X o @ * r j { r   ",
"      * e @             . . 2 : : % $ O O . . . = @ @ @ # & r } e   ",
"      & q @             - , a p 0 9 % $ ; ; - <     @ @ # & * { @   ",
"        @               o ; ; , ; - $ $ > , , -           @ * { @   ",
"                        ; , , , , > $ $ - - - 9             * j @   ",
"                        , p p p 0 p > % 8 8 8               & j @   ",
"                        $ x x x s < $                         7     ",
"                          ; < < > $                                 ",
"                                                                    "
};
