/* XPM */
static char *_d4e21ce96da4a6df203d73d09a828ae1330D81UukhuAPWD[] = {
/* columns rows colors chars-per-pixel */
"172 52 39 1 ",
"  c None",
". c black",
"X c #010101",
"o c #101010",
"O c #111111",
"+ c #202020",
"@ c gray13",
"# c gray19",
"$ c #313131",
"% c gray25",
"& c #414141",
"* c gray31",
"= c #505050",
"- c #5F5F5F",
"; c #606060",
": c gray38",
"> c #6F6F6F",
", c gray44",
"< c #717171",
"1 c gray50",
"2 c #808080",
"3 c #8E8E8E",
"4 c gray56",
"5 c #909090",
"6 c gray62",
"7 c #9F9F9F",
"8 c #A0A0A0",
"9 c #AFAFAF",
"0 c gray69",
"q c gray",
"w c gray75",
"e c #CECECE",
"r c gray81",
"t c gray87",
"y c #DFDFDF",
"u c #EEEEEE",
"i c #EFEFEF",
"p c #FEFEFE",
"a c white",
/* pixels */
"       ..............................................................................................................................................................       ",
"     ..................................................................................................................................................................     ",
"   .....................................................................................................................................................................    ",
"   .......................................................................................................................................................................  ",
"  ........................................................................................................................................................................  ",
" .......................................................................................................................................................................... ",
" .......................................................................................................................................................................... ",
"............................................................................................................................................................................",
"............................................................................................................................................................................",
"............................................................................................................................................................................",
"............................................................................................................................................................................",
"...................................................................o#............................................+=;222=+................................o+.................",
".......................+%;;;;%%+........%*....%w52;=%%++++%;;257wyaay.......................XXX.......%5,=%o+%1wiaaaaaaaa7+.........+w72;=%%++++%;;257wyiaao................",
"...................o>wiaaaaaaaaaayw7279ia+....#aaaaaaaaaaaaaaaaaaaaay.....................+=<<X........2aaaaaaaaaaaaaaaaaai>........oaaaaaaaaaaaaaaaaaaaaaa@................",
"..................=iaaaaaaaaaaaaaaaaaaaa7.....+aaaaaaaaaaaaaaaaaaaaai.........#w77522279yaaayO..........waaaaaaaaiyiaaaaaaaa4........iaaaaaaaaaaaaaaaaaaaaa@................",
".................>aaaaaaaai7;==8yaaaaaaa+......aaaaay>,aaaaa7;>5yaaaa..........;aaaaaaaaaaaa-...........%aaaaaaa2o..1aaaaaaaa,.......raaaai2;aaaaar;>5raaaaO................",
"................+yaaaaaaa5o.....+8aaaaa7.......yaaaro.%aaaaa;....2aaa...........5aaaaaaaaaaw.............iaaaaa,.....5aaaaaaaio......0aaauOX.aaaaa2....,aaa$................",
"................=aaaaaaa7.........2aaaa%.......yaay+..%aaaaa*.....yaa...........oaaaaaaaaaa2.............yaaaar......oiaaaaaaa,......8aaaOXXoaaaaa2.....waaO................",
"................2aaaaaaa%..........waay........raa-...%aaaaa%.....=ay............iaaaaayiaa7.............uaaaa9.......raaaaaaa7......8aa2.XX+aaaaa2.....%aao................",
"................,aaaaaaa;..........+ia-........way....=aaaaa%......iw...........=aaaaaa-9aar.............taaaa2.......waaaaaaaw......8ay+..X+aaaaa,......wi.................",
"................%aaaaaaay+..........5y.........wa-....;aaaaa%......55...........waaaaay.5aai.............yaaaa1.......waaaaaaa9......2a,....$aaaaa-......,w.................",
".................waaaaaaaa7+........%7.........8y.....;aaaaa%......%,..........+aaaaaa-.;aaa+............waaaa-.......yaaaaaaa-......2y+....%aaaaa;......o0.................",
".................+yaaaaaaaaa7%.......+.........8-.....,aaaaa+.......#..........8aaaaay..+aaa*............waaaa;.......aaaaaaaa+......;8.....%aaaaa;.......#.................",
"..................+8aaaaaaaaaaw%...............-......2aaaaa+.................+aaaaaa-...iaa4............waaaa;......#aaaaaaa4.......;+.....%aaaaa*.........................",
"....................=waaaaaaaaaaw+....................2aaaaa+.................8aaaaay....9aaw............waaaa2......;aaaappto..............;aaaaa%.........................",
"......................#8yaaaaaaaaa4o..................5aaaaa+................+aaaaaa-....5aai............waaaa2....o1iaaaapuOX..............;aaaaa%X........................",
".........................%5raaaaaaay+.................8aaaaao................8aaaaay.....;aaa+...........wppaay977riaaaaaa5o................,aaaap$X........................",
"............................+;yaaaaai=................8aaaaa................+aaaaaa-.....#aaa;...........wapaaaaaaaaaaaaw$..................2aaaaa&X........................",
"...............................8aaaaaa#...............waaaaa................8aaaaay.......aaa4XX.........eppaaaaaaaaaaar-...................2aaaaa%.........................",
".....................+=>79o....oyaaaaayo..............waaaaa...............+aaaaaa2+%;>279aaarXX.........wppaaayw72;$uaaay#.................5aaaaa#.........................",
"...............o=>7riaaay+......,aaaaaa,..............waaaaa...............8aaaaaaaaaaaaaaaaaaoX.........waaaa,......+iaaaa-................8aaaaa+.........................",
"................;yaaaaaa-.......oaaaaaa0..............raaaaa..............+aaaaaaaaaaaaaaaaaaa$X.........yaaaa;.......5aaaaa+...............7aaaaa+.........................",
".................,aaaaai.........yaaaaaw..............yaaaaao.............9aaaaaaayr972;=#,aaa5..........yaaaa,.......%aaaaa4...............waaaaa&X........................",
".................%aaaaaio........iaaaaaw..............iaaaaa%............%aaaaaa,.........=aaaw..........uaaaa2........aaaaar...............waaaaa<X........................",
"..................iaaaaa2.......+aaaaaaw.............oaaaaaa5............yaaaaay..........%aaaao.........iaaaa7........yaaaai...............raaaaawX........................",
"..................2aaaaaa-......8aaaaaa5.............=aaaaaaio..........;aaaaaa0..........%aaaa$.........aaaaaq........aaaaaa%.............+aaaaaaaO........................",
"..................oiaaaaaa1+..o4aaaaaaa-.............8aaaaaaa4.........+yaaaaaaio.........%aaaaw........$aaaaaio......;aaaaaaw.............1aaaaaaaw........................",
"...................#iaaaaaaawraaaaaaaay.............+aaaaaaaaa1.......#yaaaaaaaa4.........;aaaaa1......oyaaaaaa-.....oyaaaaaaa1............uaaaaaaaa2.......................",
"....................+yaaaaaaaaaaaaaaaw+.............,752;;%%%%%.....o1iyyw9775222+.......#iaaaaaaw%....5aaaaaaayo....0aaaaaaaaa>..........%842>;%%%%%o......................",
"......................%8yaaaaaaaaay5%...............................oo..................%8752;;=%%%o..-uwwwyyyyy2...+;;;;;;;;;;;o...........................................",
".........................#%=;;;%#o..........................................................................................................................................",
"............................................................................................................................................................................",
"............................................................................................................................................................................",
"............................................................................................................................................................................",
"............................................................................................................................................................................",
" .......................................................................................................................................................................... ",
" .......................................................................................................................................................................... ",
"  ........................................................................................................................................................................  ",
"  ........................................................................................................................................................................  ",
"   ......................................................................................................................................................................   ",
"     ..................................................................................................................................................................     ",
"       ..............................................................................................................................................................       "
};
