/* XPM */
static char *_72bdde5431d49ba90e371be72076b9aJdukNvheAIJb6wDm[] = {
/* columns rows colors chars-per-pixel */
"60 60 190 2 ",
"   c #0A0807",
".  c #140C07",
"X  c #170E08",
"o  c #190F09",
"O  c #1D110A",
"+  c #121113",
"@  c #22140C",
"#  c #28170D",
"$  c #26180E",
"%  c #2A190F",
"&  c #281913",
"*  c #2E1D11",
"=  c #391E11",
"-  c #3A2717",
";  c #3E3023",
":  c #49261A",
">  c #442B1A",
",  c #4C291E",
"<  c #562C1D",
"1  c #5B2E1D",
"2  c #46311B",
"3  c #4A321D",
"4  c #52331B",
"5  c #58371E",
"6  c #402B20",
"7  c #4E2C22",
"8  c #502D22",
"9  c #4A3424",
"0  c #4C3925",
"q  c #4E3528",
"w  c #5B3A30",
"e  c #743D24",
"r  c #734831",
"t  c #7D574A",
"y  c #844727",
"u  c #844728",
"i  c #874E3E",
"p  c #884F3F",
"a  c #89513E",
"s  c #9D5D31",
"d  c #935638",
"f  c #9E6135",
"g  c #A86432",
"h  c #BB6C30",
"j  c #C66E32",
"k  c #CE6E35",
"l  c #D06F34",
"z  c #C67037",
"x  c #CA7433",
"c  c #C77238",
"v  c #CB753C",
"b  c #C67D3D",
"n  c #CD7A3C",
"m  c #D37336",
"M  c #D87736",
"N  c #D27C37",
"B  c #D97937",
"V  c #D57638",
"C  c #D77939",
"Z  c #DA7C3B",
"A  c #835341",
"S  c #8C5240",
"D  c #AD6541",
"F  c #AC664F",
"G  c #B36641",
"H  c #B66843",
"J  c #BA6D46",
"K  c #A17444",
"L  c #BF7148",
"P  c #AE6650",
"I  c #B06750",
"U  c #B26A52",
"Y  c #8C776F",
"T  c #99796F",
"R  c #8C7770",
"E  c #C57546",
"W  c #CC7841",
"Q  c #C27449",
"!  c #C77B4F",
"~  c #C97A49",
"^  c #D07740",
"/  c #D27A42",
"(  c #C97E51",
")  c #C47759",
"_  c #C7795A",
"`  c #CA7D5D",
"'  c #D6823B",
"]  c #DD823E",
"[  c #E1853E",
"{  c #E48A3F",
"}  c #DF8440",
"|  c #DB8A48",
" . c #DE9346",
".. c #DF9749",
"X. c #CB8154",
"o. c #CE815F",
"O. c #E08641",
"+. c #E48C44",
"@. c #E88F41",
"#. c #E38E4B",
"$. c #E69047",
"%. c #EA9344",
"&. c #E69149",
"*. c #E9954B",
"=. c #E19A4C",
"-. c #EC994E",
";. c #E59553",
":. c #E79A56",
">. c #ED9D52",
",. c #E6985A",
"<. c #E99C5A",
"1. c #F1A14F",
"2. c #EFA154",
"3. c #EFA259",
"4. c #F1A356",
"5. c #F4A956",
"6. c #F2A659",
"7. c #F4AA5C",
"8. c #CF8560",
"9. c #D48863",
"0. c #DA936E",
"q. c #E49D62",
"w. c #D8A26B",
"e. c #DEAF7A",
"r. c #DFB27D",
"t. c #EDA564",
"y. c #EDA768",
"u. c #EFAA6D",
"i. c #F5AE61",
"p. c #F1AE6B",
"a. c #F7B164",
"s. c #F8B467",
"d. c #F4B26C",
"f. c #F9B76B",
"g. c #EFAC70",
"h. c #E9AC7F",
"j. c #E0B27F",
"k. c #F4B674",
"l. c #F5B877",
"z. c #FABC72",
"x. c #F6BB7B",
"c. c #FABF7D",
"v. c #FBC27E",
"b. c #9E8B85",
"n. c #A68F87",
"m. c #BF9E8D",
"M. c #B2A39E",
"N. c #C49C8E",
"B. c #C89E8E",
"V. c #C99E90",
"C. c #CDA393",
"Z. c #D0A695",
"A. c #D2A998",
"S. c #E1B685",
"D. c #EDB383",
"F. c #E1B887",
"G. c #E6B18F",
"H. c #E8B28F",
"J. c #E3BA89",
"K. c #F9BE83",
"L. c #F5BC88",
"P. c #F8BE88",
"I. c #E9B491",
"U. c #EDBE9E",
"Y. c #CFB6AC",
"T. c #FCC582",
"R. c #FCC986",
"E. c #F8C58B",
"W. c #FDCB8A",
"Q. c #FECE92",
"!. c #F5C69A",
"~. c #F6CA9C",
"^. c #F8CD9E",
"/. c #F1CBA9",
"(. c #FFE5BE",
"). c #D4C6C2",
"_. c #EDD7CA",
"`. c #E2DEDC",
"'. c #FFE6C2",
"]. c #FFE8C3",
"[. c #FFE6CC",
"{. c #FFEACC",
"}. c #FEE9D2",
"|. c #FFF2DD",
" X c #EEE8E5",
".X c #EEEFEE",
"XX c #F3F0ED",
"oX c #FEF4EB",
"OX c #F9F7F6",
"+X c #FFFFFE",
/* pixels */
"+X|.].].].].].].].].].].(.].].(.(.].(.(.(.'.(.(.(.(.(.{.+X+X+X+X].].(.].'.'.].'.'.'.'.'.'.'.'.'.[.[.[.[.'.[.[.[.}.[.oX+X",
"}.v.R.W.R.R.R.R.R.R.R.R.R.R.R.R.T.T.R.T.T.T.T.T.v.v.v.E._.XXOX^.v.v.v.v.c.c.c.K.c.c.c.K.c.K.K.K.x.K.K.K.K.L.L.L.P.P.U._.",
"^.5.f.s.s.s.s.s.a.s.s.a.a.a.a.a.a.a.a.i.i.i.i.i.7.i.7.t.0.2 > 2.7.7.6.6.6.6.6.6.6.6.6.>.2.2.2.2.>.>.2.>.>.>.>.-.-.-.X.A.",
"^.5.s.s.s.s.s.s.a.a.a.a.i.a.a.i.i.i.i.i.i.i.i.i.7.i.7.t.0.* % ..7.6.6.6.6.6.4.4.<.2.6.2.2.2.2.>.>.>.>.>.-.>.-.-.-.-.X.Z.",
"~.5.a.a.a.a.a.a.i.i.i.a.i.i.i.i.i.i.i.7.i.7.i.6.7.7.6.t.0.& % =.5.5.6.6.6.4.6.4.4.4.2.2.>.>.2.2.>.>.>.-.>.-.-.*.-.*.( A.",
"~.5.a.a.a.a.a.7.i.i.i.i.i.i.i.i.i.7.i.7.7.i.7.7.7.6.6.t.o.% * =.4.6.4.4.4.2.4.4.2.2.2.2.2.>.-.>.>.-.>.-.-.-.-.-.-.*.( A.",
"~.1.a.i.i.i.i.7.i.i.i.i.i.7.i.i.7.i.7.7.7.7.7.7.7.7.5.3.o.% % =.4.6.4.2.2.2.2.>.2.2.>.>.>.>.-.>.-.-.-.-.-.-.*.*.*.*._ Z.",
"~.1.7.i.i.a.7.a.i.7.i.7.i.7.7.7.7.7.7.7.7.6.6.7.6.6.3.3._ % % ..6.2.4.4.4.2.2.2.2.>.-.2.-.>.>.-.-.-.-.-.*.-.-.*.*.*.( Z.",
"~.1.i.7.i.7.7.7.i.7.7.7.7.7.7.7.7.7.5.5.5.5.6.6.3.6.6.3.) % $ ..4.4.4.4.-.4.2.>.>.>.>.-.>.-.-.>.-.-.*.-.-.*.*.*.*.&.` Z.",
"~.1.i.7.7.7.7.7.7.7.7.7.7.7.6.7.6.6.7.6.3.6.6.6.6.6.4.:.) % $ ..1.4.>.2.2.>.2.>.>.-.>.>.-.>.*.>.-.;.-.*.*.*.*.*.*.&.( Z.",
"!.1.7.5.7.7.5.5.7.7.6.5.5.5.6.6.6.6.6.6.3.6.6.2.3.4.4.:._ # $ ..4.>.2.>.-.4.>.>.-.>.>.>.-.*.-.*.-.*.*.*.*.*.&.&.$.$.( Z.",
"!.1.7.5.7.5.7.6.3.6.7.6.6.6.6.6.5.3.6.6.3.6.4.6.3.2.2.:.) $ $ ..1.>.>.>.>.-.-.-.-.-.*.>.*.>.-.-.*.;.*.*.*.*.&.&.*.&.( Z.",
"!.-.6.5.6.6.6.6.5.6.6.6.6.2.4.6.3.6.4.2.3.4.2.4.2.2.2.,.) $ # ..1.>.>.2.>.>.>.*.>.>.-.*.-.*.-.*.*.*.*.$.*.&.&.$.&.&.! Z.",
"!.-.5.5.6.6.6.6.6.3.6.6.6.6.6.6.3.6.2.4.2.2.2.2.2.>.2.;.) $ #  .-.>.-.-.-.-.-.>.*.*.-.*.*.*.*.*.*.*.*.$.&.$.$.$.$.@.! Z.",
"!.1.4.4.6.6.6.4.6.6.4.6.2.6.2.2.4.2.2.2.2.2.2.>.2.>.2.;.) @ #  .-.>.-.>.-.*.*.-.*.-.-.*.*.*.*.*.*.*.&.&.$.$.&.$.$.+._ Z.",
"!.-.4.4.2.3.4.4.2.2.2.2.2.2.2.2.2.2.2.2.2.-.2.2.2.-.-.;.) # @  .-.*.>.-.-.-.>.*.-.-.*.*.*.*.&.&.&.&.&.&.$.&.$.$.$.+.~ C.",
"!.*.4.4.4.4.4.3.2.2.2.3.2.2.2.>.>.2.>.2.>.>.>.-.-.2.>.;.) $ $  .-.-.-.-.-.-.-.*.-.%.-.&.*.&.&.*.&.&.&.+.+.$.+.+.+.+.! V.",
"U.g f f f f f f f f f g f f f g f f f f f f f f f f f s a @ @ g g g f f f s s s s s f f s s s s s s s s s s s s s s d Y.",
"+Xn.: : : : : : : : : : : : : : : : : : : : : : : : : , & O @ % 1 , , , , , , , 7 , , < 7 7 8 9 7 8 7 7 7 8 8 8 8 w b.OX",
"+X.X  X . . . . . . . . . . X . . . . . . . . . . . . . O @ @ # O . . . . . . . . . . . . . . . . . . . . . . . .   .X+X",
"+X.X; 0 0 0 0 0 0 0 0 0 9 @ O O O > 0 9 0 0 9 9 0 0 9 9 9 0 4 0 4 3 0 2 9 2 2 9 2 2 - + . o O 2 2 2 2 2 > 3 2 2 2 6  X+X",
"oXQ.Q.Q.Q.Q.Q.Q.Q.Q.Q.Q.T.K # @ r v.R.R.R.R.R.R.v.v.v.T.v.v.v.v.v.x.v.z.z.z.z.z.z.f.3.5 O $ K s.a.a.a.a.a.i.i.7.p.K./.oX",
"E.-.4.6.3.6.2.3.3.3.3.3.<.9.q @ ' 1.2.2.:.>.>.3.3.:.>.>.>.>.1.>.-.>.>.-.-.*.>.*.*.*.X.d O 4 1.*.&.&.#.&.#.&.+.+.#.#.` A.",
"S.*.-.-.-.-.-.-.-.-.-.*.;.8.q @ ' =.-.*.*.-.*.*.*.*.-.&.&.&.&.&.$.$.#.&.$.&.+.&.#.+.~ S O 4 *.$.+.+.+.O.+.O.+.+.O.O.~ B.",
"D.$.-.-.-.-.*.-.*.-.-.-.&.8.q @ ] %.*.-.*.*.*.*.*.*.&.*.&.$.*.$.&.$.$.&.&.$.+.&.+.+.~ S O 5 %.@.+.+.+.+.} } O.} O.O.Q V.",
"D.@.-.-.*.-.-.*.-.-.%.-.#.8.q O ' $.*.*.*.*.$.*.$.*.&.$.*.*.$.$.&.$.$.+.$.+.+.&.&.+.~ a o 4 %.+.+.+.O.+.} +.} +.O.} Q V.",
"D.%.*.*.*.-.*.*.*.*.*.*.;.8.q @ ' *.*.$.%.&.$.&.$.$.*.$.$.$.$.$.$.$.+.&.+.+.+.+.+.+.~ p O 4 %.@.} } +.} } O.} O.} } Q V.",
"D.+.*.*.*.%.-.%.*.*.*.*.#.` 9 @ ' %.&.*.&.&.&.&.$.$.$.$.+.$.$.+.+.&.+.+.+.+.+.+.+.+.~ S O 4 %.O.} +.} } +.} } } } O.Q B.",
"D.+.*.*.*.*.*.%.*.&.*.*.#.o.7 @ ' %.$.$.$.$.$.$.+.$.$.$.$.$.+.+.+.+.+.+.O.| +.+.+.O.~ S o 4 %.+.} O.O.} } } } } / O.Q B.",
"D.{ %.*.%.*.*.&.%.*.&.$.#.` 9 O ' %.$.$.$.$.$.$.$.$.+.+.+.+.$.+.+.+.+.+.+.+.+.+.O.+.E S o 4 @.{ O.O.} } } } } } } } Q B.",
"h.{ *.$.$.*.$.$.$.$.&.&.#.` 9 @ ' $.$.$.$.$.$.+.+.+.+.$.+.+.+.+.+.+.+.+.O.+.+.} +.} ~ i X 4 %.O.} } } ] } } / O.} Z L B.",
"D.{ $.$.$.$.$.$.$.&.+.&.#.` 9 O ' +.+.$.+.$.+.$.+.+.+.+.+.+.+.| O.+.O.O.+.O.O.+.} } E S X 4 @.O.} } } ] } } Z ] } Z L V.",
"h.{ +.$.$.$.$.$.$.+.$.$.| ` 9 O ' { +.+.+.+.+.+.+.+.+.+.+.O.+.O.+.O.+.O.O.+.O.O.} O.E S o 4 { [ Z O.Z [ [ Z O.Z O.O.Q B.",
"h.{ +.$.$.$.+.$.+.$.+.$.#._ 9 O ' O.+.+.+.+.+.+.+.} } +.+.O.O.+.O.O.O.O.O.O.O.O.O.} E a o 3 { [ O.O.O./ Z O.Z Z / Z Q B.",
"h.[ $.+.$.+.+.+.+.$.+.+.| ` 7 O ' { +.+.+.+.+.{ O.{ +.| O.+.O.O.O.} O.O.O.O.O.} } } E i X 3 { { O.Z Z O.Z Z Z O./ Z J N.",
"h.{ +.+.+.+.+.+.+.+.+.+.| ` 9 O N { O.+.+.O.O.+.O.+.O.{ O.O.O.O.O.} { O.] } } } ] } E i X 4 { [ Z O.Z Z Z O.Z Z Z Z J B.",
"h.[ $.+.+.+.+.+.+.+.+.+.| ` 7 O C { O.O.O.O.O.O.O.+.O.O.[ O.O.O.O.O.] ] O.] ] ] O.Z E p X 4 { [ / Z Z Z Z Z Z Z Z Z J N.",
"h.x / N n n ' n n W n C E U 6 O h n n n n n n n n n n n v n n v n n n v v n c v v E h r O > C x z k v v v z z z v k D N.",
"`.r 8 8 < < < < < < < < 8 > @ O = < < < < < < < < < < < < < < < < < < < < < < < < < < # X @ < 1 < < < 8 < < 8 1 < 8 t  X",
"+X`.. O O O @ O O @ O O @ o O O o @ @ @ @ @ @ @ O @ O @ @ O @ O O O @ O O O @ @ o @ O . X o O @ @ O O @ o @ o o o O `.+X",
"+X.X  . . . . . . . . . . X o @ O O . X . X . . . . . . . . . . . . . X . . X X . . . . X o O X o . . . . . . . . + .X+X",
"+X'.J.F.F.F.F.F.S.F.S.S.F.S.S.S.S.S.j.j.j.j.r.j.r.e.r.w.- . o * w.x.x.K.l.x.k.k.l.k.k.k.k.k.k.k.d.g.u.p.p.y.p.p.y.L./.+X",
"/.<.p.g.g.g.p.g.p.u.u.p.u.p.u.u.y.u.u.y.t.t.t.t.t.t.t.q.( O X b >.<.<.<.,.,.<.<.,.,.;.,.;.;.&.;.;.;.;.;.#.#.#.#.#.,.9.Y.",
"I.B [ [ O.O.[ [ O.[ O.] } ] [ ] [ ] ] ] ] ] ] ] } Z ] / U O X N Z Z Z Z Z Z Z Z B Z B Z B Z Z B M M M ^ B C C C V V H N.",
"I.B O.[ ] [ ] ] [ ] ] [ Z O.] [ [ Z O.] ] ] ] ] ] ] Z / U O o m [ Z Z / Z Z Z Z Z Z C C Z Z C C Z M ^ M C V V V V C H V.",
"I.B Z [ [ [ ] ] ] ] ] [ } Z ] Z ] ] Z [ Z ] Z ] Z ] ] / I O o x Z B Z [ / Z Z Z Z / Z Z Z C C C M ^ M M V V V V m m G V.",
"I.B [ Z ] Z [ Z ] ] ] Z ] ] Z } ] Z ] ] ] Z ] Z Z ] Z / U o o x Z Z Z Z Z C C Z B C C C ^ C C C C m C m ^ V V V ^ m G V.",
"I.B Z [ ] [ Z ] ] Z ] ] Z Z ] Z ] Z Z Z ] Z Z ] Z Z Z W I o o x Z Z Z B C Z C C Z C C C V V C C C m C C m m m V m m G N.",
"I.M [ Z ] [ Z Z ] Z ] [ Z Z ] Z Z ] Z Z Z Z Z Z Z Z C ^ I o X x Z B C C C Z C M M ^ M ^ M M V V V V m m m m m m m m H V.",
"H.m Z [ Z Z Z [ Z Z Z Z Z ] Z Z Z Z Z Z ] Z Z Z Z Z Z ^ I o o x Z Z C C / B C C C C M C ^ m V V V m V V m m ^ m l m H V.",
"H.m B Z Z [ Z Z Z Z Z Z Z Z Z Z Z Z Z Z B Z Z Z Z Z V W I o o k Z B B C C C C C m C m C V V V V m m m m m l V m m ^ G N.",
"H.M Z Z Z Z Z Z Z Z Z Z Z Z Z Z Z Z B Z Z Z Z B C B V W P o o j B B B V m C m C C m C m V V m m m V m m m m m m l l G N.",
"G.m B Z Z Z Z Z Z Z C Z Z Z B B C Z B Z Z Z V Z B C C ^ F X X j M V V V m C C m m V m C m m V m m m ^ l m m l m k l G N.",
"H.m Z Z B B Z B Z B Z B C C Z B V C Z B V C V V V B V ^ I X O j V V V m C m ^ m V m m m m m m l m m m l l l l l k k G N.",
"G.m C C Z B B B B Z C Z C B B C Z V B V B V C V V V B ^ F X X j M V V V m m V V ^ m m m m m m m k m m l l k l l k k G N.",
"G.l Z C C Z B B V Z V B C C C B V V C V V C V V V V V v F X . j M V m V m V m m m m m l m m m l m k l l l k k ^ k k G N.",
"G.l M M C C B C C V V C C V V C V V V V V V V V V V m v F X . j m m m m V l m V l m l m l l m l k m k m k k k k k k G N.",
"G.k M M C C C C M V C V V C V V V V V V V m V m V m V k F + X j M l m m l l l m m l m l m l l l k k k k k k k k k k G N.",
").a y y u u u u u y y y y y y y y y y y y y y y u u y u T .X.Xm.e e e e e e e e e e e e e e e e e e e e e e e e e e A ).",
"+XY.Y Y R R R R Y Y Y Y R Y Y Y R Y Y Y R R R R R R R T OX+X+X+XM.b.b.n.b.b.b.n.b.b.b.b.b.b.b.b.b.b.b.b.b.b.b.b.b.b.).OX"
};
