/* XPM */
static char *ec1eeb070d3d4162f21a898d974e3030jHCiAanCJ98TlwC9[] = {
/* columns rows colors chars-per-pixel */
"60 60 42 1 ",
"  c #232323",
". c #272727",
"X c #2A2A2A",
"o c #2F2F2F",
"O c gray19",
"+ c #353535",
"@ c #393939",
"# c #3F3F3F",
"$ c gray26",
"% c #444444",
"& c #494949",
"* c gray30",
"= c gray32",
"- c gray33",
"; c #5A5A5A",
": c gray37",
"> c gray38",
", c gray40",
"< c #686868",
"1 c #6C6C6C",
"2 c gray44",
"3 c #747474",
"4 c gray47",
"5 c gray50",
"6 c gray51",
"7 c gray53",
"8 c #898989",
"9 c gray55",
"0 c #929292",
"q c #959595",
"w c #989898",
"e c gray61",
"r c gray63",
"t c gray65",
"y c #AAAAAA",
"u c #AEAEAE",
"i c #B1B1B1",
"p c gray71",
"a c #B9B9B9",
"s c gray76",
"d c #C5C5C5",
"f c #CBCBCB",
/* pixels */
"<6554,90888888wey-;<<22*2wqqwww0=7007798872&58870q&1632413>>",
"<444,>897798867wy4=31<1::9000099*788788886:=587360$:632343<<",
"2342*;9865980740et*-#@@$$609970w1485233883$2674657%-542325<<",
"3702$<0976987778qt#$49tu%-8006909-8867885%,7766766&=44,<3221",
"676;*498769q7500qr>=wreyy$1987900>487532-$47667565%;53212223",
"562=1wq09890770qqt0;0ew9y2;899098:;4,==>4%26666677>$,543<,23",
"45>=408998890559qt0:0r00ee;=77991%X;>6qtsr;16767632%*<542,,3",
"43--6q9097899756qr320909wet&&87*@&4900werpq%,4666765@$:551,2",
"52&+19q098908766q4&5q8q9wqr4$,:+180qwqweeeur&:371564$X$15533",
"4=%;%:9q099977709>:8q08wwwww2$&17qwwwwwwwqeyw%,5664=  o*:125",
":&#35#,q0qwq78q02&6rre68899ww#;4wwqqqqq000qetq$>55-=::>>$$$-",
"*O&224@1www0003;@$85,:>==-,24%<qq90q0990900wwy7#,3$:235981=;",
"q3+,,7-&2qe06>%;2:4-o-:1673+X$4q09084349000qwer5#&@-<1123369",
"56$=2<8&#-32=&3eiup9;twwrrw#+%qq990464689765qwrw,.@;<<1<3112",
"14=$2,3901@@59yuryy:69787qa&$2qq9075737775650qerw-+-<<,<3<<<",
"<3=@:3>26r,*yiyqt9q&45733ei-$5qq976574445675qweeye@*><<11<<<",
",1:$=42-,7&3yyr9qe8=657089e:@69q0965646077647689qi:#>,,222>,",
">,,&$<3432&6qee0qt2$875554q4#7q9q965557q7765wwqewt<+,<222<,,",
",:*@X$&==**w079w9q;#7965796-+7090w66557q767579qwr5*O,12122<,",
"#@#=;,>-=@+:wqe87=#@#%**:402O60900664678qw65689qw0&+-=&**=*%",
"XO3w8tttte2O=5rq-#uai81:*$=%O,90076456454287589qw6+X@oXoXX#=",
"$1wrqwrrrryt1%<,+3ipapyupu4;X$70q665655568q66990q2X;yte0qtur",
"%5t9eqweertti7o+-8wryurrqiau0$:0q66666446qw99090q-.7rewewqe8",
"#5e7rw999qerui>o2ewwq7r06eryae@60q09664690qq09900%#8eqq0qqq6",
"@7e8t79098qwyu2*5te5438e6wwrta,&80qw76009009989qq#-8q9089004",
"#4090rtwq070ty&<rty7647wrewqetu=-q0qwwew888787743@>658885692",
"#<678w08eewe06#2rtre009were90eyw+>31:%#OooX.oO+o@+1885575691",
"@,rq989wrewer-*wrerr500wqwq56wtt,Oo.X#*%&&&&%$O +77777745691",
"+<rw90erweww5o:upytq569w807658tt7o<8werwewereyw+;w777778355>",
"#>etrrrwe61;*.2ittt874wtrr7759rt7=w000960q0000w8+27776375772",
"%;wertw5:&@=t<*9tte986ttry0874er1>8888767787789q4&2865489774",
"**9e0<=%#,8qia2@8tt989eewt9875wy1<67764<5766617801$<76677845",
"<$;;=&->9e9qrty1$9re0eewwtw007er,367566327662<4790&#<7777757",
"3OX#:5qt0000qwrt=&9qww09qwqeewe0%163,555555541<6888+$4776775",
">O>9w0qr8w5148ww7%%7ww0985987wr5$661,356544542,2479:X;677777",
";*e00q07qw0653e9qq%#88w9900qqer&;863>4555344421<7478O+;>,244",
"+;q0q0449wq755e90q0##<9q0qqetw6#29221554534442225688<.X#O+@%",
"@;00w763609988ww29q3OO,weerty4*-885215544434444445863#9w9657",
"<=5568647900qqqw63806$o6eew:=oo>7996654444343434561%$196678e",
"6&986674995480qq867996X%3-OO&4>@;88764444324433463+O>4444448",
"7%6q0977076444qwq0064q#XX&,8wid7+;47644444<233342@o*23333346",
"5$:ewqqqq87660wwqqqw0w7O<6qwyipi<@*155444312332<@o@,23322344",
"5o$987667675695<:;:>,;=;7rreruww92&+&,34544343,O.O:233333233",
"6oX$@###@@@@#+OooXoX@&.:qeeww0yupfr$O+=254553;X..*212,132222",
"7&+,,;&@@#$##O..:5wttr;1rewq7qqwtis5oXX+*<55=o.o.*1423433223",
"4=>qw08547760u+,tit0qe&3w0968q0qqwue+<1$O@%$XO1w*$3233333<23",
"2$17556645678w-&r9rwi0+2qw0qq898qwre#&29w<O.$2230+,333232513",
"*&17554544<17q1+0wwqq2#8reewqw990www7$=5wtr*:2129;$,23333342",
"o>6644545,,,7w8X7te9e*&9rereetwq0069y4+29wq;=,<236o*1233331%",
"*<664435521,8euO;6re8@=qrrreeeetwq07t4@3qe0#,,<123<O&1232;+o",
">2444445512177e$O+$2>.;wreerrwwewqqq0$@1992@63<<<14:.%13>+.@",
"<<1226543234470;07>&#.=0weeewqqqqwqq<oX&*%+;64<<<243:o@*-,%%",
":11235557565369;765701#,rqwwqqqqqqq2+&355-o:1*;:33459=o,4r0;",
",,2234544323358=343456%O<wqqqqwqwq7#&50qw5#453,,<,143&,476q7",
"8>>223435653267**333331++,9q0qqwwq$@3999q<$431<,,<<<*=364349",
"68;:23524453266&;222223<.O*40qeww=$3784495@:32<,,<,%$1543223",
"366:=2655465684+=22<2221...@3wr0#&677665596@-<2<,12#;4532222",
"2363&=14665342&.o-32221- =2:@=-O;86555555597o+&:<2%&15421221",
"22364@$$$&::,13q;$223<2&:yyew;*O50245435866e%==OO+O,853<232<",
"11337-47qweqe9wt0$,2,12$8ewe8tr><96423900665;q07q7&38311231>"
};
